<ttFont>
          <CharString index="0">
            -106 callsubr
            165 hmoveto
            -106 callsubr
            return
          </CharString>
          <CharString index="1">
            -30 -28 -24 -30 -5 hvcurveto
            -31 -5 21 -26 30 hhcurveto
            31 28 26 31 -66 callsubr
            24 -31 hhcurveto
            return
          </CharString>
          <CharString index="2">
            -107 callsubr
            endchar
          </CharString>
          <CharString index="3">
            372 681 rmoveto
            -73 callsubr
            193 97 172 175 27 hvcurveto
            -29 callsubr
            -97 -609 -92 callsubr
            return
          </CharString>
          <CharString index="4">
            98 vstem
            -104 callsubr
            return
          </CharString>
          <CharString index="5">
            -76 callsubr
            -99 callsubr
            return
          </CharString>
          <CharString index="6">
            255 -13 rmoveto
            77 1 73 23 48 53 38 44 22 56 13 81 67 423 rcurveline
            -96 hlineto
            -64 -409 -11 -64 -12 -45 -26 -30 rlinecurve
            -32 -26 -37 -15 -51 hhcurveto
            -53 -34 15 32 -13 hvcurveto
            -18 30 3 44 11 65 64 409 rcurveline
            -96 hlineto
            -67 -423 -13 -81 6 -56 24 -44 rlinecurve
            -53 31 64 -24 76 hhcurveto
            return
          </CharString>
          <CharString index="7">
            -20 35 callsubr
            hintmask 01111110
            279 37 -102 callsubr
            hintmask 10111110
            -94 callsubr
            return
          </CharString>
          <CharString index="8">
            -96 callsubr
            -39 -34 -51 callsubr
            return
          </CharString>
          <CharString index="9">
            hstem
            5 85 callsubr
            -103 callsubr
            return
          </CharString>
          <CharString index="10">
            -13 rmoveto
            115 107 71 194 30 hvcurveto
            195 31 -78 69 -116 hhcurveto
            -115 -37 callsubr
            115 hhcurveto
            76 455 rmoveto
            66 43 -14 callsubr
            -69 -44 -54 hhcurveto
            -66 -43 -15 callsubr
            69 33 54 hhcurveto
            return
          </CharString>
          <CharString index="11">
            -24 3 19 16 3 hvcurveto
            38 243 rlineto
            131 21 -39 52 -130 -69 callsubr
            37 hhcurveto
            80 14 -25 -76 -12 hvcurveto
            -12 -78 rlineto
            4 return
          </CharString>
          <CharString index="12">
            -20 hstem
            29 96 267 96 vstem
            -101 callsubr
            return
          </CharString>
          <CharString index="13">
            -86 -14 46 -54 87 hhcurveto
            62 60 24 26 31 hvcurveto
            -187 99 rmoveto
            58 10 53 20 67 hhcurveto
            30 30 -1 -3 18 hvcurveto
            -19 -116 rlineto
            -23 -39 -41 callsubr
            return
          </CharString>
          <CharString index="14">
            rmoveto
            31 -172 rlineto
            97 hlineto
            -114 53 callsubr
            -107 hlineto
            -324 -3 callsubr
            98 hlineto
            84 172 rlineto
            225 75 rmoveto
            -191 hlineto
            147 330 rlineto
            return
          </CharString>
          <CharString index="15">
            rmoveto
            -117 -26 119 143 22 -79 callsubr
            -43 callsubr
            return
          </CharString>
          <CharString index="16">
            202 -97 callsubr
            return
          </CharString>
          <CharString index="17">
            14 33 10 24 5 33 rrcurveto
            100 16 -46 73 -117 hhcurveto
            -139 -96 -116 -136 -22 hvcurveto
            -153 -24 43 -124 158 hhcurveto
            57 54 13 28 53 hvcurveto
            -240 292 rmoveto
            36 13 40 86 96 hhcurveto
            60 20 -46 29 callsubr
            return
          </CharString>
          <CharString index="18">
            hstem
            -3 82 227 82 vstem
            366 90 -31 callsubr
            -90 callsubr
            return
          </CharString>
          <CharString index="19">
            142 -70 callsubr
            275 hlineto
            13 81 rlineto
            -371 -50 callsubr
            380 38 callsubr
            return
          </CharString>
          <CharString index="20">
            -36 callsubr
            238 -100 callsubr
            return
          </CharString>
          <CharString index="21">
            hstem
            -1 92 232 92 vstem
            -91 callsubr
            return
          </CharString>
          <CharString index="22">
            rmoveto
            67 -86 56 36 -78 callsubr
            return
          </CharString>
          <CharString index="23">
            hmoveto
            472 701 rlineto
            -91 hlineto
            -473 -701 rlineto
            78 307 rmoveto
            71 69 32 159 25 hvcurveto
            hintmask 1011011110000000
            159 26 25 callsubr
            -26 hvcurveto
            -158 -25 56 36 callsubr
            20 -27 -100 -15 hvcurveto
            -101 -16 -30 -26 -35 hhcurveto
            -34 -19 26 101 16 hvcurveto
            100 15 29 27 34 hhcurveto
            287 -639 rmoveto
            71 70 32 159 25 hvcurveto
            159 25 25 callsubr
            -25 hvcurveto
            -158 -25 55 36 callsubr
            21 -27 -100 -16 hvcurveto
            -101 -16 -29 -26 -35 hhcurveto
            -34 -20 26 101 16 hvcurveto
            100 16 28 27 34 hhcurveto
            endchar
          </CharString>
          <CharString index="24">
            -85 callsubr
            endchar
          </CharString>
          <CharString index="25">
            -34 -31 -27 -33 -5 hvcurveto
            -34 -6 23 40 callsubr
            31 29 34 6 hvcurveto
            33 5 -23 27 -34 hhcurveto
            return
          </CharString>
          <CharString index="26">
            39 callsubr
            -88 callsubr
            return
          </CharString>
          <CharString index="27">
            -20 hstem
            381 172 -93 callsubr
            return
          </CharString>
          <CharString index="28">
            hvcurveto
            -53 callsubr
            117 26 -117 -145 -23 hvcurveto
            return
          </CharString>
          <CharString index="29">
            -82 110 rlineto
            -65 hlineto
            -117 -110 43 -36 rlineto
            return
          </CharString>
          <CharString index="30">
            rmoveto
            -36 73 -179 -122 27 54 callsubr
          </CharString>
          <CharString index="31">
            rmoveto
            -32 10 28 -74 callsubr
            return
          </CharString>
          <CharString index="32">
            -84 -204 rmoveto
            -5 24 21 -2 21 hhcurveto
            110 73 65 156 76 hvcurveto
            245 496 rlineto
            -94 hlineto
            -183 -411 -66 411 -96 -6 105 -502 rlineto
            -108 -53 -48 -33 -71 hhcurveto
            -14 -13 0 3 -16 hvcurveto
            return
          </CharString>
          <CharString index="33">
            -19 38 hhcurveto
            15 45 7 15 26 hvcurveto
            -6 56 rlineto
            -8 -27 -12 -1 -7 hhcurveto
            return
          </CharString>
          <CharString index="34">
            -54 callsubr
            -177 -28 40 -170 190 hhcurveto
            return
          </CharString>
          <CharString index="35">
            1 callsubr
            238 -20 -89 callsubr
            return
          </CharString>
          <CharString index="36">
            433 177 rmoveto
            17 111 -83 55 -74 42 -66 38 -53 33 8 52 rrcurveto
            54 9 43 34 67 hhcurveto
            45 51 -11 -16 43 hvcurveto
            38 80 rlineto
            21 -53 -54 11 -56 hhcurveto
            -108 -100 -63 -106 -16 hvcurveto
            -19 -118 70 -38 74 -40 76 -41 58 -37 -10 -67 rrcurveto
            -52 -9 -49 -47 -84 hhcurveto
            -41 -67 16 23 -54 hvcurveto
            -39 -85 rlineto
            -22 42 83 -17 69 hhcurveto
            128 96 79 111 18 hvcurveto
            return
          </CharString>
          <CharString index="37">
            81 rmoveto
            36 225 rlineto
            259 hlineto
            12 79 -16 callsubr
            return
          </CharString>
          <CharString index="38">
            hhcurveto
            -42 -77 -14 -26 -46 hvcurveto
            11 -63 rlineto
            17 51 43 10 return
          </CharString>
          <CharString index="39">
            31 callsubr
            238 -20 -86 callsubr
            return
          </CharString>
          <CharString index="40">
            -25 callsubr
            55 345 rlineto
            -90 hlineto
            -55 -347 rlineto
            -100 -16 18 -72 116 hhcurveto
            return
          </CharString>
          <CharString index="41">
            5 hvcurveto
            30 5 -21 return
          </CharString>
          <CharString index="42">
            rmoveto
            179 29 -120 141 -178 hhcurveto
            -178 -164 -141 -179 -29 hvcurveto
            -179 -28 120 -141 178 hhcurveto
            178 164 141 179 28 hvcurveto
            -75 hmoveto
            -147 -23 -121 -110 -141 hhcurveto
            -142 -87 108 147 23 hvcurveto
            147 23 121 108 142 hhcurveto
            141 88 -106 -147 -24 hvcurveto
            return
          </CharString>
          <CharString index="43">
            11 callsubr
            268 49 callsubr
            hintmask 10111100
            9 callsubr
            hintmask 01111100
            -22 callsubr
            hintmask 10111100
            -67 callsubr
            return
          </CharString>
          <CharString index="44">
            rmoveto
            -20 25 60 -17 57 hhcurveto
            128 74 77 81 12 hvcurveto
            26 164 -248 -48 18 113 rrcurveto
            38 6 35 28 62 hhcurveto
            42 39 -10 -10 27 hvcurveto
            32 67 rlineto
            14 -22 -43 15 -65 hhcurveto
            -107 -78 -59 -90 -14 hvcurveto
            -27 -167 247 52 -18 -119 rrcurveto
            -35 -6 -36 -35 -69 hhcurveto
            -48 -43 14 15 -32 hvcurveto
            endchar
          </CharString>
          <CharString index="45">
            90 vstem
            126 59 rmoveto
            3 19 -2 25 -4 13 rrcurveto
            -95 hlineto
            -59 callsubr
            return
          </CharString>
          <CharString index="46">
            434 81 rmoveto
            -8 -40 -36 -4 -36 hhcurveto
            -118 -83 60 210 33 hvcurveto
            199 32 91 60 113 -1 callsubr
            -162 -129 -94 -252 -39 hvcurveto
            -268 -43 118 -80 157 hhcurveto
            48 46 7 12 51 hvcurveto
            return
          </CharString>
          <CharString index="47">
            59 668 rmoveto
            148 -393 -43 -275 rlineto
            96 hlineto
            43 275 269 393 4 callsubr
            return
          </CharString>
          <CharString index="48">
            51 callsubr
            -4 86 callsubr
            -39 62 callsubr
            82 10 callsubr
            return
          </CharString>
          <CharString index="49">
            rmoveto
            81 60 48 162 26 hvcurveto
            163 26 -43 46 -82 hhcurveto
            -82 -60 -48 -163 -26 hvcurveto
            -162 -26 44 -46 82 hhcurveto
            56 357 rmoveto
            45 20 -30 -117 -19 -7 callsubr
            19 27 30 44 hhcurveto
            return
          </CharString>
          <CharString index="50">
            -8 -31 -35 -5 -29 hhcurveto
            -85 -63 43 146 23 hvcurveto
            142 23 76 47 69 hhcurveto
            38 25 -7 -10 29 hvcurveto
            38 64 rlineto
            19 -34 -41 10 -45 hhcurveto
            -117 -123 -78 -187 -30 hvcurveto
            -187 -29 96 -79 124 hhcurveto
            40 44 9 15 42 hvcurveto
            endchar
          </CharString>
          <CharString index="51">
            -3 -19 2 -25 4 -13 rrcurveto
            95 hlineto
            -7 25 -2 26 3 21 9 58 40 55 60 59 rrcurveto
            -83 hlineto
            -62 -50 -45 -65 -11 -72 rrcurveto
            return
          </CharString>
          <CharString index="52">
            rmoveto
            -79 hlineto
            7 -21 4 -19 -3 -19 -5 -34 -26 -31 -54 -34 33 -48 rcurveline
            85 46 36 49 8 47 3 22 -3 21 -6 21 rrcurveto
            return
          </CharString>
          <CharString index="53">
            -190 -97 -171 -176 -28 hvcurveto
            return
          </CharString>
          <CharString index="54">
            145 23 64 117 117 hhcurveto
            return
          </CharString>
          <CharString index="55">
            40 38 -43 45 hhcurveto
            37 49 32 45 34 hvcurveto
            -38 36 rlineto
            -25 -26 -22 -17 -14 hhcurveto
            return
          </CharString>
          <CharString index="56">
            1 -30 -42 callsubr
            return
          </CharString>
          <CharString index="57">
            hlineto
            -105 -3 callsubr
            return
          </CharString>
          <CharString index="58">
            707 -45 callsubr
            return
          </CharString>
          <CharString index="59">
            rlineto
            -28 -4 -11 -86 97 hhcurveto
            16 53 4 16 36 hvcurveto
            -5 66 rlineto
            -7 -23 -24 -3 -14 hhcurveto
            -24 -10 10 29 5 hvcurveto
            return
          </CharString>
          <CharString index="60">
            34 callsubr
            -8 hvcurveto
            -53 -9 23 -50 71 hhcurveto
            71 42 52 52 8 20 callsubr
            4 hvcurveto
            23 3 43 callsubr
            endchar
          </CharString>
          <CharString index="61">
            50 35 28 59 11 66 9 56 -8 48 -37 38 rrcurveto
            -121 -248 rmoveto
            -19 -28 -38 -6 -81 hhcurveto
            -38 hlineto
            41 257 rlineto
            54 hlineto
            63 44 -7 -28 23 hvcurveto
            18 -20 8 -34 -7 -42 -7 -47 -17 -32 -35 -22 rrcurveto
            endchar
          </CharString>
          <CharString index="62">
            rmoveto
            -107 callsubr
            return
          </CharString>
          <CharString index="63">
            3 19 -2 25 -4 13 rrcurveto
            -95 hlineto
            return
          </CharString>
          <CharString index="64">
            -143 -22 -64 -119 -117 hhcurveto
            return
          </CharString>
          <CharString index="65">
            hhcurveto
            -64 -115 -21 -118 -19 hvcurveto
            return
          </CharString>
          <CharString index="66">
            -41 -13 -44 hhcurveto
            -44 -30 21 57 9 hvcurveto
            return
          </CharString>
          <CharString index="67">
            rmoveto
            45 55 -141 -27 callsubr
          </CharString>
          <CharString index="68">
            535 hmoveto
            105 53 callsubr
            -91 hlineto
            -72 -457 -3 -20 -5 -35 -1 -29 rlinecurve
            -231 541 rlineto
            -98 -50 callsubr
            91 hlineto
            72 457 3 20 5 35 1 29 rlinecurve
            231 -541 rlineto
            return
          </CharString>
          <CharString index="69">
            -301 94 callsubr
            hstem
            27 -62 callsubr
            endchar
          </CharString>
          <CharString index="70">
            -107 -71 -194 -31 hvcurveto
            -195 -31 80 -69 return
          </CharString>
          <CharString index="71">
            -32 -13 -30 callsubr
            return
          </CharString>
          <CharString index="72">
            192 511 rmoveto
            -92 -9 -79 -502 87 callsubr
            return
          </CharString>
          <CharString index="73">
            235 668 rmoveto
            -96 -24 callsubr
            return
          </CharString>
          <CharString index="74">
            86 -114 rlineto
            66 hlineto
            121 114 -40 39 rlineto
            return
          </CharString>
          <CharString index="75">
            rmoveto
            26 26 17 11 13 hhcurveto
            hintmask 11100110
            -17 callsubr
            hintmask 11001110
            14 callsubr
            -43 83 callsubr
          </CharString>
          <CharString index="76">
            rmoveto
            -19 -45 -45 -9 -46 hhcurveto
            -99 -27 86 105 15 hvcurveto
            294 hlineto
            return
          </CharString>
          <CharString index="77">
            71 -51 -21 228 52 174 76 return
          </CharString>
          <CharString index="78">
            177 28 -40 170 -192 hhcurveto
            return
          </CharString>
          <CharString index="79">
            21 -21 668 -20 return
          </CharString>
          <CharString index="80">
            122 -60 -73 rlineto
            endchar
          </CharString>
          <CharString index="81">
            rmoveto
            9 55 rlineto
            -68 hlineto
            37 234 rlineto
            -97 hlineto
            -171 -247 -7 -42 rlineto
            164 hlineto
            -17 -111 rlineto
            65 hlineto
            17 111 rlineto
            -56 55 rmoveto
            -86 hlineto
            113 168 rlineto
            return
          </CharString>
          <CharString index="82">
            -31 -38 -59 -16 -44 hhcurveto
            -64 0 41 56 9 hvcurveto
            return
          </CharString>
          <CharString index="83">
            -50 callsubr
            96 hlineto
            return
          </CharString>
          <CharString index="84">
            29 51 hhcurveto
            51 1 -46 -52 12 callsubr
            return
          </CharString>
          <CharString index="85">
            1 -54 rlineto
            73 hlineto
            81 512 rlineto
            -90 hlineto
            -62 -392 rlineto
            return
          </CharString>
          <CharString index="86">
            85 rmoveto
            24 154 rlineto
            153 hlineto
            13 79 rlineto
            -153 hlineto
            24 152 rlineto
            -79 hlineto
            -24 -152 rlineto
            -152 32 callsubr
            152 hlineto
            -24 -154 rlineto
            endchar
          </CharString>
          <CharString index="87">
            rmoveto
            45 55 -140 -27 callsubr
          </CharString>
          <CharString index="88">
            -20 hstem
            164 96 vstem
            -60 callsubr
            return
          </CharString>
          <CharString index="89">
            90 vstem
            270 643 55 callsubr
            -3 86 callsubr
            -40 62 callsubr
            83 27 callsubr
            11 72 rrcurveto
            return
          </CharString>
          <CharString index="90">
            40 38 -43 45 hhcurveto
            37 48 32 45 34 hvcurveto
            -37 36 rlineto
            -25 -26 -23 -17 -14 hhcurveto
            return
          </CharString>
          <CharString index="91">
            rlineto
            -259 hlineto
            32 202 rlineto
            return
          </CharString>
          <CharString index="92">
            44 146 23 hvcurveto
            74 callsubr
            return
          </CharString>
          <CharString index="93">
            -33 -158 -25 hvcurveto
            -146 -23 return
          </CharString>
          <CharString index="94">
            44 21 -21 172 75 421 -20 return
          </CharString>
          <CharString index="95">
            -44 callsubr
            51 callsubr
            return
          </CharString>
          <CharString index="96">
            61 callsubr
            -35 callsubr
            return
          </CharString>
          <CharString index="97">
            rmoveto
            64 409 rlineto
            -58 hlineto
            -126 -51 13 -57 87 41 -54 -342 rlineto
            return
          </CharString>
          <CharString index="98">
            120 81 rmoveto
            393 518 4 69 rlineto
            -417 hlineto
            -2 -81 rlineto
            299 hlineto
            -396 -522 -1 -65 rlineto
            441 38 callsubr
            return
          </CharString>
          <CharString index="99">
            -153 50 -51 199 180 8 48 -142 180 -66 -50 rlineto
            return
          </CharString>
          <CharString index="100">
            hvcurveto
            -120 -19 -28 -26 -45 hhcurveto
            -44 -19 26 120 19 hvcurveto
            117 return
          </CharString>
          <CharString index="101">
            rmoveto
            55 38 -39 -142 -22 hvcurveto
            -111 -18 -45 -85 -95 hhcurveto
            -28 -42 6 10 -22 hvcurveto
            51 319 rlineto
            21 33 47 21 48 hhcurveto
            return
          </CharString>
          <CharString index="102">
            -11 -17 -37 hvcurveto
            9 -50 rlineto
            12 27 31 6 24 hhcurveto
            30 21 -12 -34 -5 hvcurveto
            -5 -31 -26 -30 -43 -1 rrcurveto
            -31 hlineto
            -9 -55 rlineto
            return
          </CharString>
          <CharString index="103">
            125 71 callsubr
            194 308 rmoveto
            -172 -8 callsubr
            return
          </CharString>
          <CharString index="104">
            -668 rlineto
            return
          </CharString>
          <CharString index="105">
            101 74 rmoveto
            314 370 rlineto
            62 -333 vlineto
            -2 -74 rlineto
            226 hlineto
            -313 -374 rlineto
            -58 368 vlineto
            1 74 rlineto
            return
          </CharString>
          <CharString index="106">
            hhcurveto
            35 42 -6 -9 39 hvcurveto
            30 75 rlineto
            15 -52 -48 8 -48 hhcurveto
            return
          </CharString>
          <CharString index="107">
            rmoveto
            -69 26 -438 26 callsubr
          </CharString>
          <CharString index="108">
            -44 -13 75 191 66 123 74 return
          </CharString>
          <CharString index="109">
            -6 0 81 225 79 202 81 return
          </CharString>
          <CharString index="110">
            rmoveto
            hintmask 11100000
            -35 -32 -27 -32 -5 hvcurveto
            -34 -5 22 -29 35 hhcurveto
            32 59 callsubr
            32 5 -22 27 -32 hhcurveto
            endchar
          </CharString>
          <CharString index="111">
            rlineto
            -101 hlineto
            -204 -315 -100 315 rlineto
            return
          </CharString>
          <CharString index="112">
            14 callsubr
            -44 63 callsubr
            return
          </CharString>
          <CharString index="113">
            110 55 110 return
          </CharString>
          <CharString index="114">
            rmoveto
            -34 -32 -27 -33 -5 hvcurveto
            -34 -5 22 40 callsubr
            59 callsubr
            33 5 -22 27 -34 hhcurveto
            endchar
          </CharString>
          <CharString index="115">
            489 612 rmoveto
            42 -39 -51 14 -102 hhcurveto
            -158 -24 callsubr
            41 259 rlineto
            36 hlineto
            return
          </CharString>
          <CharString index="116">
            161 -13 rmoveto
            61 65 30 28 39 hvcurveto
            return
          </CharString>
          <CharString index="117">
            27 callsubr
            12 72 rrcurveto
            return
          </CharString>
          <CharString index="118">
            -3 -13 77 -52 -21 515 -20 return
          </CharString>
          <CharString index="119">
            -8 hvcurveto
            -54 -342 97 callsubr
            return
          </CharString>
          <CharString index="120">
            -28 callsubr
            hstem
            return
          </CharString>
          <CharString index="121">
            -41 -43 43 -44 hhcurveto
            -36 return
          </CharString>
          <CharString index="122">
            -13 85 524 85 return
          </CharString>
          <CharString index="123">
            rmoveto
            -33 -30 -25 -30 -5 hvcurveto
            -32 -5 22 -27 33 hhcurveto
            31 29 27 32 -66 callsubr
            25 -31 hhcurveto
            return
          </CharString>
          <CharString index="124">
            rmoveto
            -82 callsubr
            return
          </CharString>
          <CharString index="125">
            70 callsubr
            754 -11 callsubr
            return
          </CharString>
          <CharString index="126">
            91 vstem
            38 -177 rmoveto
            90 -9 98 621 rlineto
            127 hlineto
            22 71 rlineto
            -137 hlineto
            6 40 rlineto
            return
          </CharString>
          <CharString index="127">
            hvcurveto
            -59 hmoveto
            -23 -4 -15 -27 -34 hhcurveto
            -32 -7 26 23 return
          </CharString>
          <CharString index="128">
            61 -75 vlineto
            -80 -506 97 callsubr
            59 373 rlineto
            return
          </CharString>
          <CharString index="129">
            hhcurveto
            158 81 108 183 29 hvcurveto
            74 callsubr
            -70 80 -96 hhcurveto
            -59 -65 -33 -14 -20 hvcurveto
            return
          </CharString>
          <CharString index="130">
            72 callsubr
            rlineto
            hintmask 10110000
            -33 callsubr
            endchar
          </CharString>
          <CharString index="131">
            -99 -28 85 105 13 hvcurveto
            294 hlineto
            15 33 9 27 5 33 rrcurveto
            100 16 -48 71 -117 hhcurveto
            return
          </CharString>
          <CharString index="132">
            -56 34 -71 hhcurveto
            -70 -69 -34 -160 return
          </CharString>
          <CharString index="133">
            -748 71 -26 rlineto
            endchar
          </CharString>
          <CharString index="134">
            hlineto
            62 50 45 65 return
          </CharString>
          <CharString index="135">
            -262 -28 callsubr
            return
          </CharString>
          <CharString index="136">
            -70 -11 hvcurveto
            -1 -8 rlineto
            return
          </CharString>
          <CharString index="137">
            71 -28 28 -28 71 hstemhm
            return
          </CharString>
          <CharString index="138">
            -12 -13 74 381 74 return
          </CharString>
          <CharString index="139">
            hlineto
            -13 -79 rlineto
            return
          </CharString>
          <CharString index="140">
            rmoveto
            83 hlineto
            166 22 -92 -161 -26 hvcurveto
            -161 -25 -51 -92 -166 hhcurveto
            -83 hlineto
            return
          </CharString>
          <CharString index="141">
            rmoveto
            53 8 -24 48 -71 hhcurveto
            -70 -41 -49 -53 return
          </CharString>
          <CharString index="142">
            58 callsubr
            hintmask 00000000
            return
          </CharString>
          <CharString index="143">
            -32 70 hhcurveto
            52 319 rmoveto
            35 return
          </CharString>
          <CharString index="144">
            hintmask 00000000
            hintmask 11010000
            return
          </CharString>
          <CharString index="145">
            hlineto
            12 81 rlineto
            return
          </CharString>
          <CharString index="146">
            hstem
            34 96 vstem
            return
          </CharString>
          <CharString index="147">
            -29 34 hhcurveto
            34 return
          </CharString>
          <CharString index="148">
            rmoveto
            36 13 39 87 96 hhcurveto
            60 21 -45 29 callsubr
            endchar
          </CharString>
          <CharString index="149">
            60 callsubr
            -10 -20 hstemhm
            21 90 return
          </CharString>
          <CharString index="150">
            16 25 32 hhcurveto
            33 7 -25 -22 -3 hvcurveto
            return
          </CharString>
          <CharString index="151">
            90 204 67 callsubr
            return
          </CharString>
          <CharString index="152">
            hhcurveto
            -109 -85 -47 -132 -20 50 callsubr
            return
          </CharString>
          <CharString index="153">
            rmoveto
            26 27 16 11 13 hhcurveto
            return
          </CharString>
          <CharString index="154">
            74 118 74 124 74 118 74 84 callsubr
            hintmask 0110111110000000
            return
          </CharString>
          <CharString index="155">
            hhcurveto
            61 58 16 33 56 hvcurveto
            -18 63 rlineto
            -24 -47 -48 -13 -48 hhcurveto
            return
          </CharString>
          <CharString index="156">
            -20 hstemhm
            18 44 callsubr
            return
          </CharString>
          <CharString index="157">
            hvcurveto
            -6 -37 -85 -7 -19 -59 92 -5 return
          </CharString>
          <CharString index="158">
            7 -25 2 -26 return
          </CharString>
          <CharString index="159">
            rmoveto
            -50 50 -200 -180 -8 -48 143 -180 66 51 return
          </CharString>
          <CharString index="160">
            668 rlineto
            return
          </CharString>
          <CharString index="161">
            -55 rlineto
            endchar
          </CharString>
          <CharString index="162">
            rmoveto
            -12 callsubr
            return
          </CharString>
          <CharString index="163">
            -15 -45 -7 hvcurveto
            -6 -38 -47 -44 -37 -39 -34 -36 -38 -39 return
          </CharString>
          <CharString index="164">
            91 -13 86 595 -20 return
          </CharString>
          <CharString index="165">
            hstemhm
            -13 84 196 90 return
          </CharString>
          <CharString index="166">
            32 29 34 5 hvcurveto
            return
          </CharString>
          <CharString index="167">
            21 -21 440 76 return
          </CharString>
          <CharString index="168">
            -20 hstem
            21 91 vstem
            return
          </CharString>
          <CharString index="169">
            -55 -60 -59 rrcurveto
            return
          </CharString>
          <CharString index="170">
            -34 -37 -29 hvcurveto
            return
          </CharString>
          <CharString index="171">
            -13 65 -31 -21 307 64 255 65 10 -20 hstemhm
            return
          </CharString>
          <CharString index="172">
            rmoveto
            95 16 -16 74 -107 hhcurveto
            -63 -77 -40 -31 -38 hvcurveto
            return
          </CharString>
          <CharString index="173">
            42 31 36 34 37 31 35 33 43 7 44 rrcurveto
            66 return
          </CharString>
          <CharString index="174">
            90 hintmask 00000000
            return
          </CharString>
          <CharString index="175">
            13 callsubr
            34 return
          </CharString>
          <CharString index="176">
            80 111 hstemhm
            return
          </CharString>
          <CharString index="177">
            -293 21 -21 return
          </CharString>
          <CharString index="178">
            -21 408 -20 hstem
            return
          </CharString>
          <CharString index="179">
            rmoveto
            -76 93 -52 -39 return
          </CharString>
          <CharString index="180">
            -20 39 callsubr
            return
          </CharString>
          <CharString index="181">
            158 25 return
          </CharString>
          <CharString index="182">
            -21 -219 rlineto
            60 hlineto
            48 219 rlineto
            return
          </CharString>
          <CharString index="183">
            hintmask 00000000
            hintmask 10111100
            return
          </CharString>
          <CharString index="184">
            76 377 76 return
          </CharString>
          <CharString index="185">
            106 -21 154 79 152 -20 hstem
            return
          </CharString>
          <CharString index="186">
            -3 -7 27 hvcurveto
            31 71 rlineto
            12 -40 return
          </CharString>
          <CharString index="187">
            rmoveto
            50 25 -28 -37 -6 hvcurveto
            -43 -7 return
          </CharString>
          <CharString index="188">
            -161 598 -21 177 -20 hstem
            return
          </CharString>
          <CharString index="189">
            rlineto
            346 38 callsubr
            endchar
          </CharString>
          <CharString index="190">
            63 callsubr
            endchar
          </CharString>
          <CharString index="191">
            hintmask 0000000000000000
            return
          </CharString>
          <CharString index="192">
            97 324 return
          </CharString>
          <CharString index="193">
            -21 -9 -58 return
          </CharString>
          <CharString index="194">
            rlineto
            91 hlineto
            return
          </CharString>
          <CharString index="195">
            -11 -18 -39 hvcurveto
            12 -51 rlineto
            15 return
          </CharString>
          <CharString index="196">
            -84 126 -21 411 -20 hstem
            return
          </CharString>
          <CharString index="197">
            hintmask 00000000
            hintmask 11100000
            return
          </CharString>
          <CharString index="198">
            hintmask 00000000
            hintmask 11011100
            return
          </CharString>
          <CharString index="199">
            -234 -21 206 return
          </CharString>
          <CharString index="200">
            0 81 506 81 return
          </CharString>
          <CharString index="201">
            -128 244 return
          </CharString>
          <CharString index="202">
            137 79 hstem
            return
          </CharString>
          <CharString index="203">
            239 79 hstem
            return
          </CharString>
          <CharString index="204">
            rlineto
            90 hlineto
            return
          </CharString>
        <CharString name=".notdef">
          -17 endchar
        </CharString>
        <CharString name=".null">
          endchar
        </CharString>
        <CharString name="A">
          44 21 -21 172 75 421 -80 callsubr
          endchar
        </CharString>
        <CharString name="AE">
          260 0 81 91 75 58 80 202 81 hstem
          306 94 vstem
          356 668 rmoveto
          -396 -3 callsubr
          100 hlineto
          102 172 rlineto
          171 hlineto
          -27 -172 rlineto
          379 hlineto
          2 81 rlineto
          -275 hlineto
          36 224 rlineto
          259 hlineto
          12 80 -16 callsubr
          266 hlineto
          22 81 rlineto
          -380 -74 rmoveto
          -55 -347 rlineto
          -140 hlineto
          endchar
        </CharString>
        <CharString name="Aacute">
          -13 callsubr
          257 -80 callsubr
          168 255 -77 callsubr
        </CharString>
        <CharString name="Acircumflex">
          -13 callsubr
          212 -80 callsubr
          35 223 -83 callsubr
        </CharString>
        <CharString name="Adieresis">
          -13 callsubr
          80 111 hstem
          100 6 callsubr
          vstem
          381 172 -93 callsubr
          -40 262 rmoveto
          -105 callsubr
        </CharString>
        <CharString name="Agrave">
          -13 callsubr
          255 -80 callsubr
          76 149 -20 callsubr
        </CharString>
        <CharString name="Aring">
          -13 callsubr
          76 54 97 54 hstem
          132 59 88 59 vstem
          469 828 34 callsubr
          -9 hvcurveto
          -53 -8 23 -50 71 hhcurveto
          71 41 52 52 9 20 callsubr
          3 hvcurveto
          23 4 43 callsubr
          -29 -656 -93 callsubr
          endchar
        </CharString>
        <CharString name="Atilde">
          -13 callsubr
          125 28 -28 71 hstemhm
          hintmask 00000000
          hintmask 11110000
          381 172 -93 callsubr
          -97 159 rmoveto
          26 26 17 11 13 -17 callsubr
          hintmask 11101000
          14 callsubr
          -43 83 callsubr
        </CharString>
        <CharString name="B">
          29 0 81 241 74 200 72 hstemhm
          34 96 190 97 -57 97 hintmask 00000000
          hintmask 11111000
          496 502 rmoveto
          9 55 -11 48 -36 30 rrcurveto
          33 -41 -62 0 -93 hhcurveto
          -123 -50 callsubr
          203 hlineto
          hintmask 11110100
          152 80 78 117 18 hvcurveto
          14 84 -22 53 -82 33 rrcurveto
          hintmask 11111000
          63 31 27 50 9 56 rrcurveto
          -272 94 rmoveto
          47 hlineto
          84 59 -2 -92 -15 hvcurveto
          -10 -65 -40 -37 -59 -4 rrcurveto
          -98 hlineto
          38 -315 rmoveto
          -88 hlineto
          38 241 rlineto
          76 hlineto
          50 38 -6 -26 21 hvcurveto
          hintmask 11110100
          25 -22 7 -32 -6 -37 rrcurveto
          -67 -11 -41 -51 -109 hhcurveto
          endchar
        </CharString>
        <CharString name="C">
          1 -13 82 529 83 hstem
          5 96 vstem
          -61 callsubr
          endchar
        </CharString>
        <CharString name="CR">
          -82 endchar
        </CharString>
        <CharString name="Ccedilla">
          1 92 callsubr
          36 0 82 529 83 hstemhm
          5 96 160 77 76 callsubr
          -61 callsubr
          hintmask 11011100
          -121 -55 -55 callsubr
          endchar
        </CharString>
        <CharString name="D">
          92 93 callsubr
          hstem
          34 96 285 97 vstem
          222 587 33 callsubr
          64 -81 rmoveto
          77 58 3 23 47 hvcurveto
          101 48 54 124 21 135 22 136 -15 124 -86 48 rrcurveto
          23 -39 -58 4 -77 hhcurveto
          -172 -50 callsubr
          171 hlineto
          endchar
        </CharString>
        <CharString name="E">
          2 callsubr
          -81 callsubr
          endchar
        </CharString>
        <CharString name="Eacute">
          2 callsubr
          237 -20 -81 callsubr
          39 751 -77 callsubr
        </CharString>
        <CharString name="Ecircumflex">
          2 callsubr
          192 -20 -81 callsubr
          -77 719 -83 callsubr
        </CharString>
        <CharString name="Edieresis">
          2 callsubr
          60 111 hstemhm
          34 96 -44 6 callsubr
          hintmask 00000000
          hintmask 11111010
          -88 callsubr
          -153 758 rmoveto
          hintmask 11110110
          -105 callsubr
        </CharString>
        <CharString name="Egrave">
          2 callsubr
          235 -20 -81 callsubr
          -41 645 -20 callsubr
        </CharString>
        <CharString name="Eth">
          107 0 81 224 79 203 81 hstem
          50 96 285 97 vstem
          14 305 rmoveto
          84 hlineto
          -48 -305 rlineto
          171 hlineto
          75 58 4 23 48 hvcurveto
          98 51 59 124 21 131 21 131 -20 126 -82 50 rrcurveto
          23 -40 -58 5 -75 hhcurveto
          -171 hlineto
          -45 -284 rlineto
          -84 hlineto
          212 203 33 callsubr
          36 224 157 1 12 79 -157 -1 rlineto
          endchar
        </CharString>
        <CharString name="Euro">
          64 -13 82 163 64 86 64 152 83 hstem
          72 96 vstem
          435 446 rmoveto
          -187 hlineto
          114 44 75 38 90 -1 callsubr
          -136 -112 -66 -169 -56 hvcurveto
          -88 hlineto
          -10 -64 rlineto
          80 hlineto
          -3 -15 -3 -16 -2 -16 -3 -14 -2 -13 -1 -12 rrcurveto
          -80 hlineto
          -10 -64 rlineto
          86 hlineto
          -186 1 106 -59 135 hhcurveto
          48 46 7 12 51 hvcurveto
          -1 75 rlineto
          -8 -40 -36 -4 -36 hhcurveto
          -95 -72 39 124 -8 hvcurveto
          187 hlineto
          10 64 rlineto
          -196 hlineto
          1 13 3 15 2 15 3 15 2 14 3 14 rrcurveto
          196 hlineto
          endchar
        </CharString>
        <CharString name="F">
          -25 21 -21 304 80 203 81 39 callsubr
          498 587 rmoveto
          13 81 rlineto
          -372 -24 callsubr
          48 304 rlineto
          258 hlineto
          12 80 rlineto
          -258 hlineto
          32 203 rlineto
          endchar
        </CharString>
        <CharString name="G">
          51 -13 85 183 80 264 83 hstemhm
          6 99 164 202 -90 67 callsubr
          hintmask 11111000
          158 340 rmoveto
          199 32 91 60 113 hhcurveto
          35 47 -6 -9 39 hvcurveto
          32 75 rlineto
          15 -52 -54 8 -48 hhcurveto
          -162 -132 -94 -252 -40 hvcurveto
          -255 -41 117 -94 141 hhcurveto
          64 74 24 37 64 hvcurveto
          46 287 rlineto
          -202 hlineto
          -13 -80 rlineto
          hintmask 11110100
          112 hlineto
          -26 -161 rlineto
          -14 -32 -34 -8 -33 hhcurveto
          -92 -77 71 197 31 hvcurveto
          endchar
        </CharString>
        <CharString name="H">
          100 21 -21 304 80 284 -20 hstem
          34 96 266 96 vstem
          456 384 rmoveto
          -266 hlineto
          45 284 rlineto
          -96 -24 callsubr
          48 304 rlineto
          266 hlineto
          -48 -304 rlineto
          96 hlineto
          105 53 callsubr
          -96 hlineto
          endchar
        </CharString>
        <CharString name="I">
          -262 68 callsubr
          96 vstem
          -34 callsubr
          endchar
        </CharString>
        <CharString name="Iacute">
          28 callsubr
          257 73 callsubr
          -34 callsubr
          211 832 -77 callsubr
        </CharString>
        <CharString name="Icircumflex">
          28 callsubr
          212 73 callsubr
          -34 callsubr
          68 800 -83 callsubr
        </CharString>
        <CharString name="Idieresis">
          28 callsubr
          69 callsubr
          -65 110 -11 96 -30 110 hintmask 00000000
          hintmask 11101000
          -34 callsubr
          -8 839 rmoveto
          hintmask 11110100
          -105 callsubr
        </CharString>
        <CharString name="Igrave">
          28 callsubr
          255 73 callsubr
          -34 callsubr
          104 726 -20 callsubr
        </CharString>
        <CharString name="J">
          -263 -154 -21 843 -20 hstem
          35 96 vstem
          -75 -175 rmoveto
          151 64 54 109 21 129 85 541 rcurveline
          -96 hlineto
          -86 -543 -17 -111 -28 -63 -113 -59 rlinecurve
          endchar
        </CharString>
        <CharString name="K">
          85 68 callsubr
          95 vstem
          234 668 rmoveto
          -95 -50 callsubr
          95 hlineto
          82 342 rmoveto
          209 -342 rlineto
          125 hlineto
          -226 347 316 321 rlineto
          -119 hlineto
          endchar
        </CharString>
        <CharString name="L">
          -76 0 81 587 73 callsubr
          142 81 rmoveto
          93 587 rlineto
          -96 hlineto
          -105 -668 82 callsubr
        </CharString>
        <CharString name="Lslash">
          -42 0 81 234 79 274 -20 hstem
          67 96 vstem
          175 81 rmoveto
          37 234 rlineto
          193 hlineto
          13 79 rlineto
          -193 hlineto
          43 274 rlineto
          -96 hlineto
          -43 -274 rlineto
          -96 32 callsubr
          96 hlineto
          -49 -315 82 callsubr
        </CharString>
        <CharString name="M">
          261 68 callsubr
          81 456 80 vstem
          266 668 rmoveto
          -111 hlineto
          -136 -3 callsubr
          88 hlineto
          91 474 5 29 4 26 4 29 rlinecurve
          105 -485 rlineto
          76 hlineto
          259 485 -6 -29 -4 -26 -3 -29 rlinecurve
          -59 -474 rlineto
          88 hlineto
          74 53 callsubr
          -111 hlineto
          -260 -495 rlineto
          endchar
        </CharString>
        <CharString name="N">
          143 68 callsubr
          91 319 91 vstem
          -39 callsubr
          endchar
        </CharString>
        <CharString name="Ntilde">
          143 -28 callsubr
          82 30 callsubr
          34 91 319 91 hintmask 00000000
          hintmask 11010110
          -39 callsubr
          -179 736 -32 callsubr
        </CharString>
        <CharString name="O">
          102 15 callsubr
          -98 callsubr
          endchar
        </CharString>
        <CharString name="OE">
          379 -13 94 225 79 211 72 -72 85 hstemhm
          5 85 callsubr
          94 hintmask 00000000
          hintmask 11101100
          532 -70 callsubr
          265 hlineto
          23 81 rlineto
          -371 hlineto
          -8 -54 rlineto
          hintmask 11011100
          46 -31 -50 21 -68 hhcurveto
          -73 callsubr
          69 59 21 48 45 hvcurveto
          hintmask 11101100
          -8 -56 rlineto
          380 hlineto
          3 81 rlineto
          -532 -9 -92 callsubr
          endchar
        </CharString>
        <CharString name="Oacute">
          102 15 callsubr
          224 -20 -98 callsubr
          239 760 -77 callsubr
        </CharString>
        <CharString name="Ocircumflex">
          102 15 callsubr
          179 -20 -98 callsubr
          120 728 -83 callsubr
        </CharString>
        <CharString name="Odieresis">
          102 15 callsubr
          47 111 hstem
          5 97 16 6 callsubr
          33 -103 callsubr
          30 767 rmoveto
          -105 callsubr
        </CharString>
        <CharString name="Ograve">
          102 15 callsubr
          222 -20 -98 callsubr
          164 654 -20 callsubr
        </CharString>
        <CharString name="Oslash">
          102 -95 -21 103 85 524 85 80 -20 hstem
          5 85 callsubr
          98 vstem
          587 736 rmoveto
          -67 25 -55 -97 rlineto
          11 -27 -30 6 -36 hhcurveto
          -54 callsubr
          -18 -115 10 -112 62 -64 -76 -133 rcurveline
          69 -26 67 118 rlineto
          -9 25 29 -6 34 hhcurveto
          193 97 172 175 27 hvcurveto
          18 114 -10 111 -61 64 rrcurveto
          -369 -289 rmoveto
          -53 callsubr
          23 20 -5 -9 17 hvcurveto
          -251 -442 -23 48 -2 69 12 77 rlinecurve
          121 -262 rmoveto
          -22 -19 4 8 -16 hvcurveto
          250 442 21 -48 1 -68 -12 -76 rlinecurve
          -43 callsubr
          endchar
        </CharString>
        <CharString name="Otilde">
          102 15 callsubr
          49 30 callsubr
          5 85 callsubr
          98 hintmask 00000000
          hintmask 11010110
          -104 callsubr
          -10 664 -32 callsubr
        </CharString>
        <CharString name="P">
          9 21 -21 259 80 257 72 hstem
          34 96 224 97 vstem
          8 callsubr
          114 62 14 37 53 hvcurveto
          -46 callsubr
        </CharString>
        <CharString name="Q">
          102 -102 -21 111 78 530 85 hstem
          4 85 callsubr
          98 vstem
          258 -12 rmoveto
          190 -40 92 -71 0 vvcurveto
          64 71 -47 31 -87 34 -77 8 rlinecurve
          105 58 57 126 20 129 rrcurveto
          -29 callsubr
          -54 callsubr
          -28 -177 41 -168 189 -1 rrcurveto
          15 78 rmoveto
          -117 -26 119 149 23 -79 callsubr
          -149 -23 -64 -119 -117 hhcurveto
          endchar
        </CharString>
        <CharString name="R">
          48 4 -21 38 -21 259 80 257 72 hstemhm
          34 96 224 97 hintmask 00000000
          hintmask 01111100
          8 callsubr
          18 16 0 1 16 hvcurveto
          hintmask 10111100
          163 -277 80 49 -146 241 32 8 25 12 25 17 rlinecurve
          -46 callsubr
        </CharString>
        <CharString name="S">
          -28 15 callsubr
          hstem
          10 92 211 92 vstem
          -71 callsubr
          endchar
        </CharString>
        <CharString name="Scaron">
          -28 15 callsubr
          0 40 153 -20 hstemhm
          10 92 211 92 91 callsubr
          -71 callsubr
          -93 604 rmoveto
          -75 93 -52 -39 rlineto
          hintmask 10111100
          -33 callsubr
          endchar
        </CharString>
        <CharString name="T">
          -43 21 -21 583 85 hstem
          144 95 vstem
          236 583 rmoveto
          -92 -583 rlineto
          95 hlineto
          92 583 rlineto
          174 hlineto
          13 85 rlineto
          -443 hlineto
          -13 -85 rlineto
          endchar
        </CharString>
        <CharString name="Thorn">
          -2 21 -21 194 59 282 59 106 -20 hstem
          34 70 264 72 vstem
          469 540 rmoveto
          40 -39 -49 14 -103 hhcurveto
          -80 hlineto
          16 106 rlineto
          -70 hlineto
          -110 -700 rlineto
          70 hlineto
          30 194 rlineto
          53 hlineto
          115 62 13 37 53 hvcurveto
          48 33 28 58 10 64 8 55 -7 50 -35 36 rrcurveto
          -105 -259 rmoveto
          -20 -31 -40 -8 -84 hhcurveto
          -65 hlineto
          44 282 rlineto
          81 hlineto
          66 47 -8 -30 26 hvcurveto
          21 -23 8 -34 -7 -46 -8 -52 -19 -36 -39 -25 rrcurveto
          endchar
        </CharString>
        <CharString name="U">
          91 -13 86 595 -95 callsubr
          endchar
        </CharString>
        <CharString name="Uacute">
          57 callsubr
          257 -95 callsubr
          268 845 -77 callsubr
        </CharString>
        <CharString name="Ucircumflex">
          57 callsubr
          212 -95 callsubr
          132 813 -83 callsubr
        </CharString>
        <CharString name="Udieresis">
          57 callsubr
          69 callsubr
          29 96 -3 6 callsubr
          -5 96 hintmask 00000000
          hintmask 11110010
          -101 callsubr
          54 852 rmoveto
          hintmask 11101100
          -105 callsubr
        </CharString>
        <CharString name="Ugrave">
          57 callsubr
          255 -95 callsubr
          171 739 -20 callsubr
        </CharString>
        <CharString name="V">
          30 13 callsubr
          169 668 rmoveto
          -104 hlineto
          110 -3 callsubr
          102 hlineto
          320 53 callsubr
          -104 hlineto
          -250 -558 rlineto
          endchar
        </CharString>
        <CharString name="W">
          286 13 callsubr
          400 618 rmoveto
          -228 -508 16 558 rlineto
          -87 hlineto
          -16 -3 callsubr
          120 hlineto
          237 538 66 -538 rlineto
          119 hlineto
          194 53 callsubr
          -87 hlineto
          -160 -558 -68 508 rlineto
          endchar
        </CharString>
        <CharString name="X">
          54 13 callsubr
          510 hmoveto
          -161 346 254 322 rlineto
          -110 hlineto
          -190 -252 -108 252 rlineto
          -108 hlineto
          148 -328 -264 -340 rlineto
          109 hlineto
          199 268 115 -268 rlineto
          endchar
        </CharString>
        <CharString name="Y">
          1 21 -21 668 -19 callsubr
          endchar
        </CharString>
        <CharString name="Yacute">
          1 -28 callsubr
          257 -19 callsubr
          316 164 -77 callsubr
        </CharString>
        <CharString name="Ydieresis">
          1 -28 callsubr
          69 callsubr
          88 110 -34 96 -7 110 hintmask 00000000
          hintmask 11101000
          -60 callsubr
          108 171 rmoveto
          hintmask 11110100
          -105 callsubr
        </CharString>
        <CharString name="Z">
          3 93 callsubr
          hstem
          -9 callsubr
          endchar
        </CharString>
        <CharString name="Zcaron">
          3 93 callsubr
          0 56 153 -20 hstemhm
          37 callsubr
          -9 callsubr
          -113 703 23 callsubr
        </CharString>
        <CharString name="_0007">
          endchar
        </CharString>
        <CharString name="_0009">
          endchar
        </CharString>
        <CharString name="_0127">
          endchar
        </CharString>
        <CharString name="_0129">
          endchar
        </CharString>
        <CharString name="_0141">
          endchar
        </CharString>
        <CharString name="_0142">
          endchar
        </CharString>
        <CharString name="_0143">
          endchar
        </CharString>
        <CharString name="_0144">
          endchar
        </CharString>
        <CharString name="_0157">
          endchar
        </CharString>
        <CharString name="_0158">
          endchar
        </CharString>
        <CharString name="a">
          -36 callsubr
          35 callsubr
          hintmask 01111100
          279 37 -102 callsubr
          hintmask 10111100
          -94 callsubr
          endchar
        </CharString>
        <CharString name="aacute">
          -87 callsubr
          299 545 -77 callsubr
        </CharString>
        <CharString name="acircumflex">
          -36 callsubr
          211 -100 callsubr
          203 531 -83 callsubr
        </CharString>
        <CharString name="acute">
          81 callsubr
          386 681 -77 callsubr
        </CharString>
        <CharString name="adieresis">
          -36 callsubr
          69 callsubr
          -13 84 -25 6 callsubr
          -54 90 84 callsubr
          hintmask 0111101100000000
          212 -49 callsubr
          -98 -670 -76 callsubr
          hintmask 1011110010000000
          -99 callsubr
          -94 callsubr
          endchar
        </CharString>
        <CharString name="ae">
          226 -13 75 152 52 -14 67 121 76 hstemhm
          -13 84 501 82 91 callsubr
          305 261 rmoveto
          4 -38 -33 1 -29 -42 callsubr
          -86 -14 46 -54 86 hhcurveto
          82 84 30 37 46 hvcurveto
          -41 31 47 -26 70 48 callsubr
          hintmask 10111100
          24 callsubr
          -63 -58 -23 -56 -41 hvcurveto
          61 -13 -48 18 -79 -69 callsubr
          38 hhcurveto
          80 14 -25 -76 -12 hvcurveto
          hintmask 11011100
          -95 -125 rmoveto
          30 29 -1 -3 18 hvcurveto
          -2 -42 6 -39 13 -33 rrcurveto
          -24 -41 -74 -14 -44 hhcurveto
          -44 1 -30 20 9 57 rrcurveto
          58 10 53 20 67 hhcurveto
          hintmask 10111100
          183 105 41 callsubr
        </CharString>
        <CharString name="agrave">
          -87 callsubr
          245 441 -40 callsubr
        </CharString>
        <CharString name="ampersand">
          152 -13 76 -73 -21 636 76 hstemhm
          -4 90 -15 85 332 79 hintmask 00000000
          hintmask 10110100
          383 133 rmoveto
          -48 -48 -59 -22 -50 hhcurveto
          -70 -54 43 78 13 hvcurveto
          8 54 43 60 79 32 rrcurveto
          hintmask 10101100
          -87 224 rmoveto
          -10 -65 29 -51 31 -45 rrcurveto
          hintmask 10110100
          -93 -49 -76 -67 -15 -97 rrcurveto
          -126 -20 89 -67 114 hhcurveto
          74 79 23 60 69 hvcurveto
          hintmask 01101100
          41 -42 66 -40 40 -19 46 64 rcurveline
          -34 17 -57 45 -36 39 68 76 47 100 21 100 rrcurveto
          -79 hlineto
          -18 -77 -34 -73 -50 -61 -167 240 rcurveline
          -22 32 -24 43 6 37 rrcurveto
          41 6 34 13 39 hhcurveto
          43 50 -16 -13 24 hvcurveto
          36 69 rlineto
          25 -50 -48 11 -48 hhcurveto
          -85 -73 -46 -81 -13 hvcurveto
          endchar
        </CharString>
        <CharString name="aring">
          -32 -12 -30 callsubr
          70 54 97 54 hstemhm
          -13 84 6 59 88 59 -16 90 84 callsubr
          hintmask 0111111101000000
          280 38 rmoveto
          -32 9 28 -19 38 hhcurveto
          15 46 7 15 25 hvcurveto
          -6 56 rlineto
          -8 -26 -13 -1 -7 hhcurveto
          -96 callsubr
          -38 -35 -51 callsubr
          hintmask 1011111101000000
          -86 -14 47 -54 87 hhcurveto
          62 59 24 26 32 hvcurveto
          -188 99 rmoveto
          58 10 54 20 67 hhcurveto
          30 29 -1 -3 18 hvcurveto
          -18 -116 rlineto
          -23 -40 -41 callsubr
          hintmask 1011111110000000
          300 554 -47 callsubr
        </CharString>
        <CharString name="asciicircum">
          -25 318 -21 344 -20 hstem
          312 641 rmoveto
          -225 -344 rlineto
          86 hlineto
          158 246 81 -246 rlineto
          86 hlineto
          -116 344 rlineto
          endchar
        </CharString>
        <CharString name="asciitilde">
          63 209 85 -18 85 hstemhm
          hintmask 00000000
          hintmask 10000000
          408 294 rmoveto
          -33 -29 16 15 -32 hvcurveto
          hintmask 01000000
          18 -35 -37 18 -50 hhcurveto
          -49 -47 -27 -70 -52 hvcurveto
          49 -45 rlineto
          26 22 32 31 24 hhcurveto
          38 32 -16 -16 30 hvcurveto
          hintmask 10000000
          -17 33 36 -18 47 hhcurveto
          50 46 27 70 52 hvcurveto
          -49 45 rlineto
          -26 -22 -32 -31 -24 hhcurveto
          endchar
        </CharString>
        <CharString name="asterisk">
          -130 403 -21 311 -20 hstem
          283 539 rmoveto
          108 40 -29 69 -93 -67 25 112 rlineto
          -77 hlineto
          -8 -112 -75 67 -49 -69 96 -42 -109 -42 28 -67 95 68 -27 -114 rlineto
          77 hlineto
          9 112 72 -66 52 66 rlineto
          endchar
        </CharString>
        <CharString name="at">
          242 -50 74 100 66 257 62 101 70 hstem
          -1 86 75 84 352 82 vstem
          528 125 rmoveto
          115 68 87 162 26 hvcurveto
          184 29 -82 122 -209 hhcurveto
          -217 -177 -161 -226 -36 hvcurveto
          -231 -37 135 -112 173 hhcurveto
          84 77 23 42 99 hvcurveto
          -18 63 rlineto
          -36 -81 -76 -18 -66 hhcurveto
          -132 -101 88 186 30 hvcurveto
          191 30 137 121 162 hhcurveto
          167 49 -97 -138 -22 hvcurveto
          -112 -18 -34 -73 -56 hhcurveto
          -26 -14 15 37 6 hvcurveto
          1 5 2 15 3 13 50 203 rcurveline
          19 -41 -42 12 -41 hhcurveto
          -115 -104 -92 -138 -22 hvcurveto
          -100 -16 52 -55 82 hhcurveto
          45 46 24 37 28 hvcurveto
          -42 9 37 -18 41 hhcurveto
          -91 322 rmoveto
          12 15 -2 -4 11 hvcurveto
          -37 -155 rlineto
          -56 -14 -37 -42 -45 hhcurveto
          -45 -18 34 65 10 hvcurveto
          92 15 62 68 71 hhcurveto
          endchar
        </CharString>
        <CharString name="atilde">
          -36 callsubr
          71 71 -28 28 -28 71 58 callsubr
          84 callsubr
          hintmask 1011010110000000
          150 593 46 callsubr
          hintmask 1011100110000000
          -52 callsubr
          hintmask 0111001110000000
          5 callsubr
          167 -593 -102 callsubr
          hintmask 1011100110000000
          -94 callsubr
          endchar
        </CharString>
        <CharString name="b">
          -2 -13 77 callsubr
          184 -20 hstem
          20 90 221 94 vstem
          301 440 -6 callsubr
          -81 260 rmoveto
          -90 hlineto
          -105 -665 rlineto
          -27 40 68 -21 68 22 callsubr
          endchar
        </CharString>
        <CharString name="backslash">
          -116 -93 -21 872 -20 hstem
          244 -114 rmoveto
          80 21 -159 851 -78 -21 rlineto
          endchar
        </CharString>
        <CharString name="bar">
          -284 -21 -21 736 -20 hstem
          29 85 vstem
          22 -42 rmoveto
          85 hlineto
          116 736 rlineto
          -85 hlineto
          endchar
        </CharString>
        <CharString name="braceleft">
          -168 -134 72 742 74 hstemhm
          48 87 -87 229 90 callsubr
          40 346 rmoveto
          -11 -70 rlineto
          30 hlineto
          27 -2 -1 -36 -9 -59 -3 -23 -4 -30 -2 -24 -3 -25 -4 -30 -3 -22 rrcurveto
          -97 -12 49 -62 88 hhcurveto
          68 hlineto
          12 72 rlineto
          -75 hlineto
          -47 2 -5 60 4 27 2 19 3 22 4 22 2 22 4 22 3 19 12 85 -3 51 -22 21 26 24 23 59 12 63 23 134 rcurveline
          4 27 25 59 47 4 rrcurveto
          hintmask 11010000
          80 hlineto
          12 74 rlineto
          -73 hlineto
          -79 -76 -61 -102 -21 hvcurveto
          -31 -157 -7 -47 -12 -38 -28 -3 rlinecurve
          endchar
        </CharString>
        <CharString name="braceright">
          -168 -134 72 742 74 hstemhm
          -19 229 -87 87 90 callsubr
          326 346 rmoveto
          -29 hlineto
          -25 3 -1 38 7 47 6 49 7 59 6 49 rrcurveto
          102 11 -56 61 -79 hhcurveto
          -73 hlineto
          -12 -74 rlineto
          80 hlineto
          hintmask 11010000
          47 -4 5 -59 -4 -27 -5 -40 -8 -54 -5 -40 -10 -65 2 -57 23 -24 -30 -19 -19 -56 -14 -81 -3 -15 -7 -32 -2 -17 -5 -22 -3 -22 -3 -19 -4 -27 -25 -60 -47 -2 rrcurveto
          -74 hlineto
          -12 -72 rlineto
          67 hlineto
          88 69 62 97 18 hvcurveto
          5 24 5 26 6 27 5 25 5 27 5 25 9 58 11 36 26 3 rrcurveto
          31 hlineto
          endchar
        </CharString>
        <CharString name="bracketleft">
          -216 -141 77 756 74 hstemhm
          27 86 -86 199 37 callsubr
          4 -141 rmoveto
          199 hlineto
          11 70 rlineto
          hintmask 11100000
          -31 2 -47 3 -34 2 120 753 rcurveline
          hintmask 11010000
          114 6 11 71 rlineto
          -199 hlineto
          endchar
        </CharString>
        <CharString name="bracketright">
          -216 -141 74 755 77 hstemhm
          -16 199 -86 86 90 callsubr
          304 765 rmoveto
          -199 hlineto
          -11 -70 rlineto
          hintmask 11010000
          31 -2 47 -3 33 -2 -119 -752 rcurveline
          hintmask 11100000
          -113 -6 -11 -71 rlineto
          198 hlineto
          endchar
        </CharString>
        <CharString name="breve">
          -181 566 54 -54 104 hstemhm
          60 216 hintmask 00000000
          hintmask 01100000
          225 670 rmoveto
          -59 hlineto
          -54 -9 23 -50 76 hhcurveto
          76 41 52 52 9 hvcurveto
          -59 hlineto
          hintmask 10100000
          -23 -4 -15 -27 -39 hhcurveto
          hintmask 01100000
          -37 -7 26 24 4 hvcurveto
          endchar
        </CharString>
        <CharString name="brokenbar">
          -281 -24 -21 739 -20 hstem
          30 85 vstem
          94 410 rmoveto
          85 hlineto
          45 284 rlineto
          -85 hlineto
          -117 -739 rmoveto
          85 hlineto
          46 288 rlineto
          -85 hlineto
          endchar
        </CharString>
        <CharString name="bullet">
          -149 206 234 hstem
          21 233 vstem
          72 323 rmoveto
          -66 -11 42 -51 66 hhcurveto
          67 58 51 66 11 hvcurveto
          66 10 -42 51 -67 hhcurveto
          -66 -58 -51 -66 -10 hvcurveto
          endchar
        </CharString>
        <CharString name="c">
          -86 -15 77 378 76 hstem
          -2 92 vstem
          349 75 rmoveto
          -57 callsubr
        </CharString>
        <CharString name="caron">
          -85 593 -21 153 -20 hstem
          323 632 72 callsubr
          -33 callsubr
          endchar
        </CharString>
        <CharString name="ccedilla">
          -86 92 callsubr
          34 0 77 378 76 hstemhm
          -2 92 107 77 91 callsubr
          250 -49 -55 callsubr
          99 124 rmoveto
          hintmask 10111100
          -57 callsubr
        </CharString>
        <CharString name="cedilla">
          -233 92 callsubr
          -20 hstem
          145 77 vstem
          198 -49 -55 callsubr
          endchar
        </CharString>
        <CharString name="cent">
          -76 -32 181 377 183 hstem
          -10 92 105 65 vstem
          442 567 rmoveto
          -28 17 -33 11 -36 5 22 109 rcurveline
          -70 hlineto
          -12 -109 -108 -11 -107 -80 -27 -172 rlinecurve
          -27 -172 81 -79 104 -12 -22 -106 rcurveline
          70 hlineto
          12 107 38 6 42 15 40 24 rlinecurve
          -16 62 rlineto
          -21 -45 -40 -12 -37 hhcurveto
          -69 -61 48 140 22 hvcurveto
          142 22 77 47 69 hhcurveto
          39 30 -10 -15 33 hvcurveto
          endchar
        </CharString>
        <CharString name="circumflex">
          -133 602 -21 146 -20 hstem
          298 667 -83 callsubr
        </CharString>
        <CharString name="colon">
          -269 -6 123 177 123 hstem
          16 122 vstem
          95 117 17 callsubr
          49 300 7 callsubr
        </CharString>
        <CharString name="comma">
          -38 callsubr
        </CharString>
        <CharString name="copyright">
          213 -18 63 53 59 281 60 57 67 hstem
          0 74 83 70 338 75 vstem
          511 466 rmoveto
          20 -27 -35 12 -41 hhcurveto
          -88 -94 -59 -141 -22 hvcurveto
          -141 -23 76 -59 88 hhcurveto
          37 44 13 24 38 hvcurveto
          -14 49 rlineto
          -18 -34 -32 -9 -29 hhcurveto
          -52 -46 37 104 17 hvcurveto
          104 16 58 36 52 hhcurveto
          31 24 -7 -17 24 hvcurveto
          208 -112 -65 callsubr
          endchar
        </CharString>
        <CharString name="currency">
          9 3 -21 75 69 250 68 74 -20 hstem
          26 74 245 74 vstem
          44 -18 rmoveto
          28 30 35 38 30 31 rrcurveto
          -15 25 32 -9 38 hhcurveto
          35 28 6 15 30 hvcurveto
          57 -96 59 41 -18 27 -22 37 -18 29 rlinecurve
          40 36 27 50 8 48 8 48 -14 55 -29 35 83 89 rcurveline
          -45 41 -27 -27 -35 -37 -26 -29 rlinecurve
          11 -21 -30 8 -29 hhcurveto
          -36 -34 -9 -12 -28 hvcurveto
          -58 95 -60 -41 18 -28 24 -36 18 -30 rlinecurve
          -38 -36 -26 -50 -8 -47 -7 -46 7 -47 26 -35 -94 -99 rcurveline
          245 103 rmoveto
          -72 -42 54 70 11 hvcurveto
          70 11 60 56 72 hhcurveto
          71 42 -56 -70 -11 hvcurveto
          -70 -11 -60 -54 -71 hhcurveto
          endchar
        </CharString>
        <CharString name="d">
          0 -9 72 -50 -21 449 75 184 -20 hstemhm
          -1 93 222 91 76 callsubr
          37 243 rmoveto
          -149 -24 42 -103 123 hhcurveto
          57 48 19 31 44 hvcurveto
          hintmask 01111100
          5 -49 rlineto
          71 hlineto
          112 708 rlineto
          -91 hlineto
          -32 -207 rlineto
          10 -17 -40 13 -36 hhcurveto
          -170 -69 -127 -146 -23 hvcurveto
          293 -136 rmoveto
          hintmask 10111100
          -29 -35 -51 -15 -41 hhcurveto
          -80 -8 85 96 15 hvcurveto
          109 17 43 88 96 hhcurveto
          38 30 -6 -12 26 hvcurveto
          endchar
        </CharString>
        <CharString name="dagger">
          -93 21 -21 669 -20 hstemhm
          -19 220 -81 231 37 callsubr
          427 480 rmoveto
          -165 -15 59 204 rlineto
          -110 hlineto
          -5 -204 rlineto
          hintmask 11100000
          -149 15 -14 -88 154 15 -89 -407 rlineto
          106 hlineto
          39 407 rlineto
          hintmask 11010000
          160 -15 rlineto
          endchar
        </CharString>
        <CharString name="daggerdbl">
          -87 21 -21 674 -20 hstem
          268 341 rmoveto
          -3 118 141 -13 13 79 -146 -14 50 163 rlineto
          -94 hlineto
          -3 -163 -140 14 -13 -79 145 13 -38 -118 rlineto
          -126 vlineto
          -141 13 -13 -78 145 13 -48 -163 rlineto
          94 hlineto
          1 163 141 -13 13 78 -145 -13 rlineto
          endchar
        </CharString>
        <CharString name="degree">
          -192 510 60 120 61 hstem
          -6 66 110 66 vstem
          336 633 rmoveto
          61 9 -27 57 -84 hhcurveto
          -83 -48 -59 -63 -10 hvcurveto
          -60 -9 25 -59 84 hhcurveto
          84 49 61 62 10 hvcurveto
          -66 hmoveto
          -29 -5 -19 -34 -43 hhcurveto
          -42 -6 33 26 4 hvcurveto
          30 5 19 31 42 hhcurveto
          41 8 -31 -26 -4 hvcurveto
          endchar
        </CharString>
        <CharString name="dieresis">
          -192 596 111 hstem
          24 6 callsubr
          vstem
          190 -49 callsubr
          endchar
        </CharString>
        <CharString name="divide">
          -18 92 114 33 79 37 114 hstem
          146 115 vstem
          237 206 16 callsubr
          207 33 rmoveto
          13 79 rlineto
          -406 32 callsubr
          241 230 16 callsubr
          endchar
        </CharString>
        <CharString name="dollar">
          -53 -118 189 -83 83 514 189 hstemhm
          2 90 69 64 74 91 hintmask 00000000
          hintmask 01111100
          417 174 rmoveto
          17 109 -82 54 -72 41 -65 37 -53 33 9 51 rrcurveto
          53 8 42 33 66 hhcurveto
          45 51 -10 -16 41 hvcurveto
          38 79 -43 16 -43 10 -43 3 rlinecurve
          19 107 rlineto
          -70 hlineto
          -15 -108 -94 -12 -77 -59 -15 -92 rlinecurve
          -18 -116 68 -37 73 -40 75 -40 57 -36 -11 -66 rrcurveto
          -51 -8 -48 -46 -82 hhcurveto
          -41 -65 15 23 -53 hvcurveto
          -40 -84 36 -19 70 -14 62 -4 rlinecurve
          hintmask 10111100
          -19 -106 rlineto
          70 hlineto
          15 109 104 15 76 72 15 96 rlinecurve
          endchar
        </CharString>
        <CharString name="dotaccent">
          -315 559 123 hstem
          40 122 vstem
          209 682 7 callsubr
        </CharString>
        <CharString name="dotlessi">
          70 callsubr
          511 -11 callsubr
          endchar
        </CharString>
        <CharString name="e">
          1 callsubr
          -89 callsubr
          endchar
        </CharString>
        <CharString name="eacute">
          -72 callsubr
          60 363 -77 callsubr
        </CharString>
        <CharString name="ecircumflex">
          1 callsubr
          0 211 hstemhm
          -3 82 227 82 91 callsubr
          317 667 -85 callsubr
          160 -553 rmoveto
          -28 -53 -54 -13 -57 hhcurveto
          -158 -43 124 153 24 hvcurveto
          136 22 96 116 139 hhcurveto
          117 46 -73 -100 -16 hvcurveto
          -5 -33 -10 -24 -14 -33 rrcurveto
          -294 hlineto
          -105 -15 27 -86 99 hhcurveto
          46 45 9 19 45 hvcurveto
          -10 228 rmoveto
          1 8 rlineto
          hintmask 11101100
          70 11 -20 46 -60 hhcurveto
          -96 -40 -86 -36 -13 hvcurveto
          endchar
        </CharString>
        <CharString name="edieresis">
          1 callsubr
          69 callsubr
          -3 82 0 6 callsubr
          -48 82 hintmask 00000000
          hintmask 11110110
          245 -49 callsubr
          -44 -617 -31 callsubr
          hintmask 11111001
          -90 callsubr
          endchar
        </CharString>
        <CharString name="egrave">
          -72 callsubr
          32 259 -40 callsubr
        </CharString>
        <CharString name="eight">
          -14 -13 85 525 83 hstemhm
          -2 93 -62 86 186 86 -65 91 hintmask 00000000
          hintmask 11100100
          207 -13 rmoveto
          139 79 95 98 16 hvcurveto
          15 92 -42 50 -71 35 rrcurveto
          hintmask 11011000
          71 36 45 63 10 68 rrcurveto
          99 16 -63 57 -105 hhcurveto
          -101 -89 -57 -110 -17 hvcurveto
          -12 -72 26 -52 45 -33 rrcurveto
          hintmask 11100100
          -73 -36 -58 -66 -12 -77 rrcurveto
          -115 -19 60 -75 140 hhcurveto
          30 330 rmoveto
          64 -26 62 -31 -13 -78 rrcurveto
          -63 -10 -49 -47 -74 hhcurveto
          -66 -43 37 68 11 hvcurveto
          10 63 42 52 55 30 rrcurveto
          1 -1 1 0 0 vvcurveto
          2 -1 5 -2 3 -1 rrcurveto
          67 280 rmoveto
          hintmask 11011000
          49 37 -23 -56 -8 hvcurveto
          -6 -38 -41 -64 -62 -31 -50 24 -37 50 10 62 rrcurveto
          56 9 53 20 46 hhcurveto
          endchar
        </CharString>
        <CharString name="ellipsis">
          149 -6 123 hstem
          5 122 100 122 100 122 cntrmask 01110000
          84 117 17 callsubr
          222 hmoveto
          -82 callsubr
          222 hmoveto
          -82 callsubr
          endchar
        </CharString>
        <CharString name="emdash">
          320 96 callsubr
          778 318 rmoveto
          -710 32 callsubr
          710 hlineto
          endchar
        </CharString>
        <CharString name="endash">
          40 96 callsubr
          498 318 rmoveto
          -430 32 callsubr
          430 hlineto
          endchar
        </CharString>
        <CharString name="equal">
          -51 160 80 113 79 hstem
          424 432 rmoveto
          -338 32 callsubr
          338 hlineto
          -17 -113 rmoveto
          -338 hlineto
          -13 -80 rlineto
          338 hlineto
          endchar
        </CharString>
        <CharString name="eth">
          -20 -13 76 340 73 265 -20 hstem
          -1 89 225 90 vstem
          34 223 rmoveto
          -123 -20 49 -113 136 hhcurveto
          112 101 70 229 36 hvcurveto
          25 157 -24 125 -73 72 60 45 rcurveline
          -37 56 -81 -60 -43 22 -60 15 -74 2 rlinecurve
          -25 -67 55 -6 34 -11 32 -16 rlinecurve
          -63 -47 40 -56 87 66 36 -29 23 -57 7 -54 rlinecurve
          20 -23 -34 13 -56 hhcurveto
          -121 -76 -104 -149 -23 hvcurveto
          89 -2 rmoveto
          91 14 37 91 85 hhcurveto
          47 34 -22 -26 28 hvcurveto
          -2 -20 -2 -12 -3 -17 rrcurveto
          -195 -31 -55 -48 -66 hhcurveto
          -73 -28 68 90 15 hvcurveto
          endchar
        </CharString>
        <CharString name="exclam">
          -281 -6 123 583 -20 hstemhm
          11 122 -105 87 37 callsubr
          231 700 rmoveto
          -98 hlineto
          -71 -516 rlineto
          76 hlineto
          -48 -67 rmoveto
          hintmask 11100000
          -82 callsubr
          endchar
        </CharString>
        <CharString name="exclamdown">
          -289 -157 -21 583 123 hstemhm
          8 122 -105 87 37 callsubr
          159 338 rmoveto
          -76 hlineto
          -92 -516 rlineto
          98 hlineto
          44 583 rmoveto
          hintmask 11100000
          34 31 27 33 5 hvcurveto
          34 6 -23 29 -34 hhcurveto
          -34 -31 -29 -34 -6 hvcurveto
          -33 -5 23 -27 34 hhcurveto
          endchar
        </CharString>
        <CharString name="f">
          -164 -165 -21 621 71 95 callsubr
          67 19 callsubr
          66 10 12 31 98 hhcurveto
          25 36 79 callsubr
          -49 6 -28 hhcurveto
          -141 -53 -55 -124 -19 50 callsubr
          rlineto
          endchar
        </CharString>
        <CharString name="fi">
          48 -165 -21 207 -21 435 71 95 callsubr
          67 91 204 91 vstem
          430 435 rmoveto
          -68 -435 87 callsubr
          81 513 -92 -7 rlineto
          -204 hlineto
          6 40 rlineto
          75 12 40 22 59 hhcurveto
          34 41 -4 -7 44 hvcurveto
          29 74 rlineto
          11 -45 -50 5 -41 45 callsubr
          -97 -612 90 -9 98 621 rlineto
          endchar
        </CharString>
        <CharString name="five">
          -47 -13 85 286 82 147 81 hstem
          24 84 183 92 vstem
          182 72 rmoveto
          -41 -67 20 21 -36 hvcurveto
          -41 -73 rlineto
          -38 56 64 -15 60 hhcurveto
          138 83 108 129 20 hvcurveto
          141 22 -70 75 -94 hhcurveto
          -33 -41 -9 -17 -29 hvcurveto
          27 173 rlineto
          246 hlineto
          13 81 rlineto
          -330 hlineto
          -51 -327 53 -30 rlineto
          26 28 44 21 42 hhcurveto
          71 22 -61 -77 -13 hvcurveto
          -85 -13 -48 -63 -82 hhcurveto
          endchar
        </CharString>
        <CharString name="fl">
          95 -165 -21 173 76 372 71 95 callsubr
          67 91 216 19 callsubr
          75 12 40 22 59 hhcurveto
          34 41 -5 -11 43 hvcurveto
          -84 -526 -48 callsubr
          92 580 rlineto
          27 -71 -72 13 -63 45 callsubr
          rlineto
          endchar
        </CharString>
        <CharString name="florin">
          0 -237 79 590 74 95 callsubr
          167 91 vstem
          326 432 rmoveto
          127 hlineto
          22 74 rlineto
          -137 hlineto
          6 40 rlineto
          66 10 16 31 77 hhcurveto
          25 32 79 callsubr
          -45 6 -28 hhcurveto
          -121 -56 -55 -124 -19 hvcurveto
          -6 -37 rlineto
          -84 hlineto
          -21 -74 rlineto
          93 hlineto
          -78 -493 rlineto
          -66 -11 -16 -31 -77 hhcurveto
          -24 -31 3 7 -27 hvcurveto
          -31 -71 rlineto
          -12 40 45 -6 27 hhcurveto
          121 56 55 124 19 hvcurveto
          endchar
        </CharString>
        <CharString name="four">
          21 21 -21 190 66 404 -20 hstem
          266 89 vstem
          498 190 rmoveto
          10 66 rlineto
          -113 hlineto
          64 404 rlineto
          -102 hlineto
          -340 -412 -9 -58 rlineto
          288 hlineto
          -30 -190 rlineto
          89 hlineto
          30 190 rlineto
          -79 66 rmoveto
          -184 hlineto
          227 274 rlineto
          endchar
        </CharString>
        <CharString name="fraction">
          -114 -43 -21 774 -20 hstem
          460 684 0 callsubr
        </CharString>
        <CharString name="g">
          -36 -236 72 151 78 87 71 224 69 -5 -20 34 -20 hstemhm
          -18 82 -62 83 -37 69 163 83 -32 83 84 callsubr
          hintmask 1110011001000000
          157 157 rmoveto
          -3 15 19 -2 17 hhcurveto
          120 1 71 79 16 102 7 42 -7 47 -19 29 30 4 32 4 46 9 -2 56 rcurveline
          hintmask 1110101001000000
          -10 -59 -53 -4 -46 hhcurveto
          -13 -12 1 1 -13 hvcurveto
          hintmask 1111000101000000
          1 -13 -20 2 -12 hhcurveto
          -122 -68 -80 -102 -17 hvcurveto
          -11 -69 20 -61 51 -31 rrcurveto
          hintmask 1111000011000000
          -39 -41 -11 -28 -5 -29 -2 -17 3 -23 17 -15 rrcurveto
          hintmask 1111001000100000
          -63 -30 -41 -43 -8 -53 rrcurveto
          -83 -13 66 -47 122 hhcurveto
          143 105 72 107 16 hvcurveto
          76 13 -49 46 -96 hhcurveto
          -92 hlineto
          hintmask 1111000011000000
          -38 -13 11 23 3 hvcurveto
          3 15 8 19 14 24 rrcurveto
          96 290 rmoveto
          71 20 -37 -76 -12 hvcurveto
          -77 -12 -38 -34 -64 hhcurveto
          hintmask 1111000100100000
          -64 -29 35 77 13 hvcurveto
          76 12 39 36 64 hhcurveto
          -13 -460 rmoveto
          70 16 -18 -34 -6 hvcurveto
          -61 -9 -56 -38 -92 hhcurveto
          hintmask 1111001001000000
          -73 -49 22 48 8 hvcurveto
          5 33 21 31 42 17 rrcurveto
          endchar
        </CharString>
        <CharString name="germandbls">
          59 -115 -21 123 74 573 76 hstem
          21 91 95 87 26 90 7 87 vstem
          264 366 rmoveto
          -14 -89 57 -29 56 -30 41 -21 40 -21 -7 -45 rrcurveto
          -50 -8 -29 -20 -48 hhcurveto
          -45 -46 12 25 -47 hvcurveto
          -34 -67 rlineto
          -23 26 75 -21 53 hhcurveto
          102 74 57 92 15 hvcurveto
          15 94 -68 32 -60 27 -34 18 -33 16 8 50 9 59 120 25 16 104 rrcurveto
          80 13 -45 69 -119 hhcurveto
          -129 -95 -64 -144 -23 hvcurveto
          -101 -637 91 -1 101 636 rlineto
          92 14 44 42 83 hhcurveto
          63 20 -31 -47 -7 hvcurveto
          -12 -75 -115 -13 -17 -102 rrcurveto
          endchar
        </CharString>
        <CharString name="grave">
          81 callsubr
          345 577 -40 callsubr
        </CharString>
        <CharString name="greater">
          89 callsubr
          407 345 rmoveto
          -314 171 -13 -85 221 -120 -260 -122 -13 -84 368 170 rlineto
          endchar
        </CharString>
        <CharString name="guillemotleft">
          13 125 71 callsubr
          512 462 52 callsubr
          -124 153 rlineto
          -37 154 52 callsubr
          -125 153 rlineto
          endchar
        </CharString>
        <CharString name="guillemotright">
          10 -4 callsubr
          334 -154 rmoveto
          -173 -8 callsubr
          endchar
        </CharString>
        <CharString name="guilsinglleft">
          -195 94 71 callsubr
          297 431 rmoveto
          -50 50 -200 -180 -7 -48 142 -180 66 51 -125 153 rlineto
          endchar
        </CharString>
        <CharString name="guilsinglright">
          -200 -4 callsubr
          endchar
        </CharString>
        <CharString name="h">
          -2 60 callsubr
          191 -20 hstem
          21 91 204 90 vstem
          223 707 rmoveto
          -92 -8 -110 -699 87 callsubr
          59 373 rlineto
          38 38 66 -23 callsubr
          54 347 rlineto
          95 16 -16 74 -107 hhcurveto
          -61 -71 -37 -31 -39 hvcurveto
          endchar
        </CharString>
        <CharString name="hungarumlaut">
          -14 543 -21 204 -20 hstem
          363 666 rmoveto
          -54 60 -152 -155 40 -45 rlineto
          344 136 rmoveto
          -53 61 -153 -156 40 -45 rlineto
          endchar
        </CharString>
        <CharString name="hyphen">
          -7 96 callsubr
          451 318 rmoveto
          -383 32 callsubr
          383 hlineto
          endchar
        </CharString>
        <CharString name="i">
          70 callsubr
          593 122 hstemhm
          3 121 -103 91 37 callsubr
          -35 callsubr
          66 715 3 callsubr
        </CharString>
        <CharString name="iacute">
          18 callsubr
          208 681 -77 callsubr
        </CharString>
        <CharString name="icircumflex">
          70 callsubr
          727 61 callsubr
          112 hmoveto
          -91 hlineto
          79 502 92 9 rlineto
          -13 156 -83 callsubr
        </CharString>
        <CharString name="idieresis">
          70 callsubr
          596 111 hstemhm
          -70 110 -19 91 -17 110 37 callsubr
          -35 callsubr
          -16 707 rmoveto
          hintmask 11101000
          -105 callsubr
        </CharString>
        <CharString name="igrave">
          18 callsubr
          87 577 -40 callsubr
        </CharString>
        <CharString name="j">
          -293 -189 -21 803 122 hstemhm
          5 121 -104 90 37 callsubr
          192 511 rmoveto
          -91 -9 -71 -446 -20 -126 -47 -52 -103 -16 rlinecurve
          -1 -72 141 13 92 74 27 169 rlinecurve
          61 669 3 callsubr
        </CharString>
        <CharString name="k">
          -21 21 -21 708 61 callsubr
          224 708 rmoveto
          -93 -8 -110 -700 87 callsubr
          43 272 176 -272 rlineto
          110 hlineto
          -57 86 -75 106 -57 87 241 223 rcurveline
          -112 hlineto
          -225 -221 rlineto
          endchar
        </CharString>
        <CharString name="l">
          -255 -13 76 637 -20 hstem
          24 91 vstem
          134 700 rmoveto
          -95 -599 -48 callsubr
          94 598 rlineto
          endchar
        </CharString>
        <CharString name="less">
          89 callsubr
          32 275 rmoveto
          314 -170 13 84 -220 122 259 120 13 85 -368 -171 rlineto
          endchar
        </CharString>
        <CharString name="logicalnot">
          -12 353 79 hstemhm
          315 79 hintmask 00000000
          74 432 rmoveto
          -13 -79 rlineto
          309 hlineto
          hintmask 11000000
          -18 -117 rlineto
          79 hlineto
          31 196 rlineto
          endchar
        </CharString>
        <CharString name="lslash">
          -95 -13 76 252 79 306 -20 hstem
          70 91 vstem
          430 394 rmoveto
          -207 hlineto
          48 306 rlineto
          -91 hlineto
          -48 -306 rlineto
          -87 32 callsubr
          87 hlineto
          -34 -214 -48 callsubr
          33 213 rlineto
          207 hlineto
          endchar
        </CharString>
        <CharString name="m">
          281 42 callsubr
          201 90 197 90 91 callsubr
          459 377 rmoveto
          29 37 63 34 50 hhcurveto
          51 1 -45 -53 12 callsubr
          54 347 rlineto
          93 15 -15 76 -107 hhcurveto
          -61 -78 -41 -33 -40 hvcurveto
          45 -10 -32 29 -66 hhcurveto
          -62 -73 -39 -32 -38 hvcurveto
          hintmask 10111100
          21 callsubr
          hintmask 11011100
          38 38 63 -23 callsubr
          54 343 rlineto
          2 11 1 11 12 vvcurveto
          endchar
        </CharString>
        <CharString name="macron">
          60 591 79 hstem
          620 670 rmoveto
          -451 32 callsubr
          451 hlineto
          endchar
        </CharString>
        <CharString name="minus">
          -13 249 61 hstem
          444 310 rmoveto
          -378 hlineto
          -10 -61 rlineto
          378 hlineto
          endchar
        </CharString>
        <CharString name="mu">
          42 -186 -21 194 77 442 -20 22 -20 hstemhm
          25 44 callsubr
          hintmask 11101100
          -8 -207 rmoveto
          90 hlineto
          32 204 rlineto
          -7 15 17 -3 22 hhcurveto
          61 65 31 31 39 hvcurveto
          -44 6 30 -74 callsubr
          -24 3 19 16 3 hvcurveto
          66 416 rlineto
          -90 hlineto
          -63 -395 rlineto
          -25 callsubr
          hintmask 11011100
          55 347 -91 -9 rlineto
          endchar
        </CharString>
        <CharString name="multiply">
          -10 116 -21 411 -20 hstem
          439 153 rmoveto
          -127 150 173 149 -50 54 -173 -148 -124 148 -66 -57 125 -148 -174 -150 49 -56 174 151 128 -149 rlineto
          endchar
        </CharString>
        <CharString name="n">
          -1 42 callsubr
          206 67 callsubr
          hintmask 11011000
          461 347 65 callsubr
          hintmask 10111000
          21 callsubr
          hintmask 11011000
          38 38 68 -23 callsubr
          endchar
        </CharString>
        <CharString name="nine">
          -24 -13 85 140 78 306 85 hstem
          -5 92 219 93 vstem
          122 -13 rmoveto
          159 137 139 248 40 hvcurveto
          237 37 -79 70 -112 hhcurveto
          -134 -86 -114 -137 -21 hvcurveto
          -153 -25 63 -65 95 hhcurveto
          44 54 18 33 45 hvcurveto
          -115 -41 -68 -76 -98 hhcurveto
          -23 -31 8 8 -19 hvcurveto
          -35 -80 rlineto
          -14 33 36 -7 29 hhcurveto
          168 609 rmoveto
          66 37 -46 -171 -27 hvcurveto
          -2 -12 -2 -9 -3 -11 rrcurveto
          -34 -43 -54 -23 -43 hhcurveto
          -57 -22 46 94 15 hvcurveto
          103 16 48 63 71 hhcurveto
          endchar
        </CharString>
        <CharString name="ntilde">
          -1 60 callsubr
          -10 -20 101 30 callsubr
          21 90 206 67 callsubr
          hintmask 11001011
          176 593 46 callsubr
          hintmask 11010011
          -52 callsubr
          hintmask 11000111
          5 callsubr
          323 -283 65 callsubr
          hintmask 10110011
          21 callsubr
          hintmask 11010011
          38 38 68 -23 callsubr
          endchar
        </CharString>
        <CharString name="numbersign">
          75 7 -21 204 77 122 77 202 -20 hstem
          384 190 rmoveto
          146 hlineto
          12 77 rlineto
          -133 hlineto
          41 122 rlineto
          115 hlineto
          12 77 rlineto
          -102 hlineto
          68 202 rlineto
          -78 hlineto
          -69 -202 rlineto
          -115 hlineto
          69 202 rlineto
          -80 hlineto
          -68 -202 rlineto
          -128 hlineto
          -12 -77 rlineto
          114 hlineto
          -41 -122 rlineto
          -96 hlineto
          -12 -77 rlineto
          83 hlineto
          -69 -204 rlineto
          79 hlineto
          70 204 rlineto
          114 hlineto
          -69 -204 rlineto
          78 hlineto
          57 403 rmoveto
          -40 -122 rlineto
          -114 hlineto
          41 122 rlineto
          endchar
        </CharString>
        <CharString name="o">
          31 callsubr
          -86 callsubr
          endchar
        </CharString>
        <CharString name="oacute">
          -68 callsubr
          146 239 -77 callsubr
        </CharString>
        <CharString name="ocircumflex">
          31 callsubr
          0 211 hstemhm
          -1 92 232 92 hintmask 00000000
          hintmask 11011000
          202 -13 rmoveto
          -115 -80 69 195 31 hvcurveto
          194 31 107 71 115 hhcurveto
          116 78 -69 -195 -31 hvcurveto
          -194 -30 -107 -71 -115 hhcurveto
          76 455 rmoveto
          -54 -69 -14 callsubr
          43 -44 66 hhcurveto
          54 69 -15 callsubr
          -43 33 -66 hhcurveto
          36 225 rmoveto
          67 -86 56 36 rlineto
          hintmask 10111000
          -78 callsubr
          endchar
        </CharString>
        <CharString name="odieresis">
          31 callsubr
          69 callsubr
          -1 92 -22 6 callsubr
          -21 92 hintmask 00000000
          hintmask 11110010
          -91 callsubr
          -43 265 rmoveto
          hintmask 11101100
          -105 callsubr
        </CharString>
        <CharString name="oe">
          292 -13 75 190 67 123 74 hstem
          -1 92 237 84 226 82 vstem
          565 62 rmoveto
          24 callsubr
          -73 -61 -33 -60 -46 hvcurveto
          69 -26 -55 24 -70 hhcurveto
          -118 -37 callsubr
          118 hhcurveto
          70 60 25 72 52 hvcurveto
          -63 26 57 -34 81 48 callsubr
          -284 380 rmoveto
          68 43 -14 callsubr
          -71 -44 -54 hhcurveto
          -69 -43 -15 callsubr
          72 33 54 hhcurveto
          190 -123 41 callsubr
        </CharString>
        <CharString name="ogonek">
          -185 -221 78 -78 208 hstemhm
          64 88 hintmask 00000000
          hintmask 10100000
          120 -13 rmoveto
          -37 -32 -33 -41 -8 -51 rrcurveto
          -50 -8 39 -34 63 hhcurveto
          34 33 9 12 30 hvcurveto
          -2 70 rlineto
          -9 -26 -19 -4 -15 hhcurveto
          -28 -12 14 21 3 hvcurveto
          hintmask 01100000
          4 24 24 34 40 37 rrcurveto
          endchar
        </CharString>
        <CharString name="ograve">
          -68 callsubr
          92 135 -40 callsubr
        </CharString>
        <CharString name="one">
          -167 13 callsubr
          136 93 vstem
          229 hmoveto
          105 53 callsubr
          -79 hlineto
          -198 -83 17 -67 154 67 -92 -585 rlineto
          endchar
        </CharString>
        <CharString name="onehalf">
          219 -24 -21 45 62 290 62 315 -20 hstem
          76 74 421 72 vstem
          402 hmoveto
          257 hlineto
          9 62 rlineto
          -159 hlineto
          45 66 callsubr
          10 -25 49 -87 hhcurveto
          -39 -33 88 callsubr
          31 30 3 20 hhcurveto
          28 26 56 callsubr
          -45 -40 rrcurveto
          -214 235 -10 callsubr
          470 412 0 callsubr
        </CharString>
        <CharString name="onequarter">
          197 -24 -21 66 -21 111 55 563 -20 hstem
          76 74 358 65 vstem
          658 111 -26 callsubr
          -365 -43 -10 callsubr
          477 412 0 callsubr
        </CharString>
        <CharString name="onesuperior">
          -278 280 -21 409 -20 hstem
          61 74 vstem
          176 259 -10 callsubr
          endchar
        </CharString>
        <CharString name="ordfeminine">
          -177 404 44 83 33 92 46 hstem
          -3 50 105 55 vstem
          225 433 rmoveto
          -19 4 16 -10 23 hhcurveto
          8 28 3 10 16 hvcurveto
          -6 35 rlineto
          -5 -18 -6 -1 -2 hhcurveto
          -11 2 9 8 1 hvcurveto
          21 135 rlineto
          74 12 -23 30 -73 hhcurveto
          -23 -46 -8 -16 -26 hvcurveto
          7 -38 rlineto
          10 30 25 6 19 hhcurveto
          43 7 -14 -41 -6 hvcurveto
          -7 -41 rlineto
          3 -20 -17 1 -18 hhcurveto
          -36 -64 -12 -68 -12 hvcurveto
          -49 -8 26 -31 50 hhcurveto
          35 34 14 15 18 hvcurveto
          -104 56 rmoveto
          31 6 29 11 37 hhcurveto
          15 16 0 -2 8 hvcurveto
          -10 -62 rlineto
          -12 -20 -24 -7 -23 hhcurveto
          -23 -16 11 30 5 hvcurveto
          endchar
        </CharString>
        <CharString name="ordmasculine">
          -187 404 45 208 45 hstem
          0 55 125 56 vstem
          180 404 rmoveto
          64 62 40 109 17 hvcurveto
          110 18 -45 39 -66 hhcurveto
          -64 -62 -40 -109 -17 hvcurveto
          -110 -17 45 -39 65 hhcurveto
          42 253 rmoveto
          36 23 -18 -86 -14 hvcurveto
          -80 -13 -36 -24 -29 hhcurveto
          -36 -24 24 80 13 hvcurveto
          86 14 37 18 29 hhcurveto
          endchar
        </CharString>
        <CharString name="oslash">
          -7 -65 -21 73 74 381 74 57 -20 hstem
          -1 92 238 92 vstem
          76 -86 rmoveto
          54 85 rlineto
          -8 22 25 -4 28 hhcurveto
          118 107 71 194 30 hvcurveto
          17 103 -15 67 -34 41 55 86 rcurveline
          -56 24 -47 -74 rlineto
          11 -25 -29 6 -32 hhcurveto
          -118 -107 -71 -194 -31 hvcurveto
          -17 -110 18 -70 39 -40 -59 -93 rcurveline
          262 504 rmoveto
          21 18 -3 -9 16 hvcurveto
          -203 -314 -11 29 -2 44 10 62 rlinecurve
          74 callsubr
          72 33 54 hhcurveto
          -62 -381 rmoveto
          -16 -16 2 6 -12 hvcurveto
          196 305 6 -29 0 -39 -9 -55 rlinecurve
          -146 -23 -72 -44 -54 hhcurveto
          endchar
        </CharString>
        <CharString name="otilde">
          31 callsubr
          71 30 callsubr
          -2 92 232 92 hintmask 00000000
          hintmask 11010110
          201 -97 callsubr
          -99 151 46 callsubr
          hintmask 11100110
          -52 callsubr
          hintmask 11001110
          5 callsubr
          endchar
        </CharString>
        <CharString name="p">
          -2 -203 -21 211 77 callsubr
          -9 -20 hstemhm
          21 90 221 94 hintmask 00000000
          hintmask 11101100
          173 396 rmoveto
          21 34 47 23 46 hhcurveto
          81 7 -86 -92 -15 hvcurveto
          -110 -17 -45 -89 -95 hhcurveto
          -26 -43 7 7 -24 hvcurveto
          203 439 rmoveto
          -65 -64 -37 -14 -20 hvcurveto
          hintmask 11011100
          42 -76 vlineto
          -116 -731 92 10 35 221 rlineto
          -12 24 40 -8 27 hhcurveto
          171 70 130 146 23 hvcurveto
          hintmask 11101100
          150 24 -42 103 -123 hhcurveto
          endchar
        </CharString>
        <CharString name="paragraph">
          -6 -141 -21 766 64 hstemhm
          -22 237 -78 78 74 74 hintmask 00000000
          hintmask 11011000
          530 604 rmoveto
          10 64 rlineto
          -298 hlineto
          hintmask 11101000
          -88 -82 -70 -88 -14 hvcurveto
          hintmask 11011000
          -88 -14 60 -71 88 hhcurveto
          -81 -513 rlineto
          78 hlineto
          121 766 rlineto
          74 hlineto
          -121 -766 rlineto
          74 hlineto
          121 766 rlineto
          endchar
        </CharString>
        <CharString name="parenleft">
          -228 -114 -21 888 -20 hstem
          -3 92 vstem
          45 309 rmoveto
          -24 -155 34 -146 76 -143 73 43 rcurveline
          -58 122 -32 132 23 147 24 146 74 133 96 122 -59 43 rcurveline
          -122 -143 -80 -146 -25 -155 rrcurveto
          endchar
        </CharString>
        <CharString name="parenright">
          -230 -114 -21 888 -20 hstem
          109 91 vstem
          248 309 rmoveto
          25 155 -33 146 -76 143 -73 -43 rcurveline
          57 -122 33 -133 -24 -146 -23 -147 -75 -132 -95 -122 59 -43 rcurveline
          122 143 79 146 24 155 rrcurveto
          endchar
        </CharString>
        <CharString name="percent">
          295 64 callsubr
          62 47 callsubr
          255 -84 callsubr
        </CharString>
        <CharString name="period">
          -295 -6 123 hstem
          5 122 vstem
          84 117 17 callsubr
          endchar
        </CharString>
        <CharString name="periodcentered">
          -267 190 143 hstem
          8 142 vstem
          130 333 rmoveto
          -38 -37 -32 -37 -6 hvcurveto
          -40 -6 27 -34 38 hhcurveto
          40 37 34 40 6 hvcurveto
          37 6 -27 32 -40 hhcurveto
          endchar
        </CharString>
        <CharString name="perthousand">
          544 -21 -21 38 64 236 64 -7 62 238 62 17 -20 hstemhm
          -13 65 136 66 140 66 136 65 57 66 136 65 84 callsubr
          hintmask 1101101111110000
          526 -4 -58 callsubr
          268 -357 -58 callsubr
          hintmask 1110101111110000
          -741 -57 rmoveto
          82 61 48 162 26 hvcurveto
          163 25 -42 46 -83 hhcurveto
          -81 -61 -48 -163 -26 hvcurveto
          -162 -25 43 -46 81 hhcurveto
          57 357 rmoveto
          45 19 -30 -117 -18 -7 callsubr
          18 28 30 44 hhcurveto
          402 53 rmoveto
          hintmask 1110011111110000
          -69 26 -437 26 callsubr
        </CharString>
        <CharString name="plus">
          -54 78 callsubr
          146 79 vstem
          238 -21 callsubr
        </CharString>
        <CharString name="plus.001">
          -33 78 callsubr
          202 79 vstem
          294 -21 callsubr
        </CharString>
        <CharString name="plusminus">
          -24 0 80 215 81 150 -20 hstem
          161 80 vstem
          263 142 rmoveto
          24 153 rlineto
          152 hlineto
          13 81 rlineto
          -152 hlineto
          24 150 rlineto
          -80 hlineto
          -24 -150 rlineto
          -152 hlineto
          -13 -81 rlineto
          152 hlineto
          -24 -153 rlineto
          222 -62 rmoveto
          -384 hlineto
          -12 -80 rlineto
          384 hlineto
          endchar
        </CharString>
        <CharString name="q">
          -3 -200 -21 208 76 369 76 hstem
          -1 94 220 90 vstem
          204 63 rmoveto
          -80 -7 90 93 14 hvcurveto
          102 17 44 84 97 hhcurveto
          27 40 -3 -7 23 hvcurveto
          -51 -321 rlineto
          -26 -42 -43 -12 -39 hhcurveto
          163 -284 rmoveto
          111 697 rlineto
          17 -39 -68 15 -70 hhcurveto
          -152 -85 -97 -165 -27 hvcurveto
          -153 -24 42 -106 123 hhcurveto
          50 52 17 25 37 hvcurveto
          -38 -241 rlineto
          endchar
        </CharString>
        <CharString name="question">
          -179 -13 123 581 -20 hstem
          5 122 vstem
          254 492 rmoveto
          -23 -85 -141 -31 -33 -138 -3 -11 -5 -45 -1 -16 rrcurveto
          77 hlineto
          11 59 33 134 141 5 33 130 rlinecurve
          31 119 -101 72 -146 6 -30 -77 rcurveline
          110 -10 68 -39 -21 -73 rrcurveto
          -171 -382 rmoveto
          -34 -31 -27 -33 -6 hvcurveto
          -34 -5 22 40 callsubr
          59 callsubr
          33 6 -23 27 -34 hhcurveto
          endchar
        </CharString>
        <CharString name="questiondown">
          -185 -169 -21 581 123 hstem
          117 122 vstem
          68 9 rmoveto
          23 85 141 31 33 138 3 11 5 45 2 16 rrcurveto
          -77 hlineto
          -12 -59 -33 -134 -141 -5 -32 -130 rlinecurve
          -31 -119 100 -72 146 -6 31 77 rcurveline
          -111 10 -68 39 21 73 rrcurveto
          171 382 rmoveto
          34 32 27 33 5 hvcurveto
          34 5 -22 29 -34 hhcurveto
          -34 -32 -29 -34 -5 hvcurveto
          -33 -5 22 -27 34 hhcurveto
          endchar
        </CharString>
        <CharString name="quotedbl">
          -167 481 219 hstem
          10 74 88 74 vstem
          114 700 rmoveto
          75 callsubr
          75 hmoveto
          75 callsubr
          endchar
        </CharString>
        <CharString name="quotedblbase">
          -131 94 callsubr
          hstem
          27 90 80 -62 callsubr
          170 hmoveto
          -12 callsubr
          -4 86 callsubr
          -39 -55 -61 -59 rrcurveto
          83 10 callsubr
          endchar
        </CharString>
        <CharString name="quotedblleft">
          -125 475 244 hstem
          4 90 80 90 vstem
          258 532 rmoveto
          -56 callsubr
          -170 hmoveto
          -56 callsubr
          endchar
        </CharString>
        <CharString name="quotedblright">
          -91 456 244 hstem
          79 90 80 -18 callsubr
          170 hmoveto
          -12 callsubr
          -3 86 callsubr
          -40 62 callsubr
          83 27 callsubr
          11 72 rrcurveto
          endchar
        </CharString>
        <CharString name="quoteleft">
          -295 475 244 hstem
          4 90 vstem
          88 532 rmoveto
          -56 callsubr
          endchar
        </CharString>
        <CharString name="quoteright">
          -261 456 244 hstem
          79 -18 callsubr
          endchar
        </CharString>
        <CharString name="quotesinglbase">
          -38 callsubr
        </CharString>
        <CharString name="quotesingle">
          -327 460 240 hstem
          11 74 vstem
          115 700 rmoveto
          -25 -240 rlineto
          60 hlineto
          52 240 rlineto
          endchar
        </CharString>
        <CharString name="r">
          -157 42 callsubr
          37 callsubr
          168 361 rmoveto
          57 38 61 22 62 hhcurveto
          9 8 0 -1 9 hvcurveto
          29 72 rlineto
          4 -11 -20 1 -12 hhcurveto
          -79 -65 -55 -30 -23 hvcurveto
          hintmask 10110000
          2 75 rlineto
          -75 hlineto
          -80 -506 97 callsubr
          endchar
        </CharString>
        <CharString name="registered">
          213 -18 63 407 45 58 67 hstem
          0 74 123 59 126 62 121 75 vstem
          687 302 -65 callsubr
          -129 163 rmoveto
          24 -23 -31 8 -58 hhcurveto
          -96 hlineto
          -61 -386 rlineto
          59 hlineto
          23 147 rlineto
          21 hlineto
          16 11 1 1 13 hvcurveto
          21 -43 35 -62 38 -50 47 31 rcurveline
          -26 36 -54 92 -2 6 12 4 12 6 12 9 28 20 18 35 6 37 5 34 -4 28 -22 22 rrcurveto
          -75 -144 rmoveto
          -12 -16 -22 -4 -46 hhcurveto
          -20 hlineto
          23 147 rlineto
          29 hlineto
          60 35 -13 -60 -9 hvcurveto
          -5 -28 -10 -18 -19 -12 rrcurveto
          endchar
        </CharString>
        <CharString name="ring">
          -182 587 54 97 54 hstem
          60 59 88 59 vstem
          375 691 -47 callsubr
        </CharString>
        <CharString name="s">
          -107 -13 77 callsubr
          hstem
          2 85 154 87 vstem
          -6 24 -63 callsubr
        </CharString>
        <CharString name="scaron">
          -107 -13 77 callsubr
          56 60 hstem
          -6 419 vstem
          268 632 72 callsubr
          -33 callsubr
          -379 -701 -63 callsubr
        </CharString>
        <CharString name="section">
          -153 -207 -21 923 -20 hstem
          47 80 vstem
          213 489 rmoveto
          -3 13 -2 15 2 13 6 38 30 30 50 17 34 10 rcurveline
          -5 70 -14 -3 -16 -4 -17 -6 rlinecurve
          -86 -29 -51 -55 -12 -79 -4 -21 2 -24 3 -21 6 -21 rcurveline
          -37 -18 -30 -25 -17 -26 -29 -43 -8 -54 10 -47 28 -86 55 -67 24 -88 16 -54 -31 -51 -67 -22 -35 -10 rcurveline
          6 -69 14 2 14 4 19 7 rlinecurve
          53 18 46 34 22 34 26 41 14 57 -13 45 rrcurveto
          -1 vlineto
          -2 8 -2 8 -2 5 37 19 28 23 19 27 28 42 11 56 -12 47 rrcurveto
          -1 vlineto
          -26 85 -59 73 -23 84 rrcurveto
          -106 -232 rmoveto
          -10 43 15 50 49 25 43 -78 23 -42 12 -45 11 -44 -15 -51 -50 -24 -28 53 -37 56 -13 57 rrcurveto
          endchar
        </CharString>
        <CharString name="semicolon">
          -267 94 callsubr
          177 123 hstemhm
          18 122 -96 96 90 callsubr
          144 416 17 callsubr
          -1 -357 rmoveto
          -44 callsubr
          hintmask 11010000
          -59 callsubr
          endchar
        </CharString>
        <CharString name="seven">
          -95 21 -21 587 81 hstem
          456 615 rmoveto
          8 53 rlineto
          -383 hlineto
          -13 -81 rlineto
          276 hlineto
          -152 -255 -65 -108 -53 -114 -31 -110 rlinecurve
          98 hlineto
          40 134 46 92 73 120 rrcurveto
          endchar
        </CharString>
        <CharString name="six">
          -25 -13 85 293 83 148 85 hstem
          2 93 219 92 vstem
          200 -13 rmoveto
          137 84 114 129 21 hvcurveto
          153 24 -63 65 -95 hhcurveto
          -46 -49 -13 -36 -44 hvcurveto
          122 41 69 75 93 hhcurveto
          24 30 -5 -5 18 hvcurveto
          33 74 rlineto
          16 -33 -38 5 -30 hhcurveto
          -152 -136 -138 -258 -41 hvcurveto
          -228 -36 78 -70 111 hhcurveto
          85 378 rmoveto
          57 23 -41 -94 -15 hvcurveto
          -95 -15 -47 -63 -71 hhcurveto
          -66 -37 44 195 30 hvcurveto
          38 44 51 16 46 hhcurveto
          endchar
        </CharString>
        <CharString name="slash">
          -82 -43 -21 774 -20 hstem
          476 684 0 callsubr
        </CharString>
        <CharString name="space">
          -305 endchar
        </CharString>
        <CharString name="sterling">
          -29 0 81 231 72 220 77 hstemhm
          40 92 -36 67 callsubr
          hintmask 11101000
          132 312 rmoveto
          4 -25 1 -24 -4 -29 -11 -65 -36 -67 -54 -28 -11 -74 rcurveline
          390 38 callsubr
          -268 hlineto
          38 51 21 47 8 50 4 26 0 29 -1 28 rrcurveto
          112 hlineto
          2 72 rlineto
          -126 hlineto
          hintmask 11110000
          -5 35 -3 46 6 36 rrcurveto
          62 10 43 41 71 hhcurveto
          33 46 -10 -20 41 hvcurveto
          39 73 rlineto
          26 -59 -50 8 -43 hhcurveto
          -117 -88 -65 -121 -19 hvcurveto
          -6 -38 0 -41 5 -32 rrcurveto
          -64 hlineto
          -11 -72 rlineto
          endchar
        </CharString>
        <CharString name="t">
          -151 -13 76 372 71 135 -20 hstem
          68 91 vstem
          288 74 rmoveto
          -9 -27 -35 -2 -17 hhcurveto
          -40 3 25 34 6 hvcurveto
          49 313 rlineto
          140 hlineto
          21 71 rlineto
          -148 hlineto
          21 135 -83 -15 -28 -120 -93 -7 -19 -59 98 -5 -48 -304 rlineto
          -99 -15 11 -45 109 hhcurveto
          26 40 6 14 36 hvcurveto
          endchar
        </CharString>
        <CharString name="thorn">
          -1 -190 -21 198 77 callsubr
          184 -20 hstem
          21 90 221 94 vstem
          221 700 rmoveto
          -90 hlineto
          -144 -911 97 callsubr
          34 212 rlineto
          -10 28 31 -4 32 22 callsubr
          117 -29 -6 callsubr
          endchar
        </CharString>
        <CharString name="three">
          -53 -13 85 525 84 hstemhm
          257 90 -64 91 37 callsubr
          185 325 rmoveto
          96 45 -51 -74 -12 hvcurveto
          -70 -11 -55 -58 -80 hhcurveto
          -45 -51 20 22 -40 hvcurveto
          -45 -75 rlineto
          -33 48 61 -19 60 hhcurveto
          132 98 90 125 19 hvcurveto
          12 75 -17 60 -78 31 rrcurveto
          hintmask 11100000
          61 31 36 60 9 58 rrcurveto
          98 16 -55 66 -122 hhcurveto
          -51 -54 -13 -24 -59 hvcurveto
          11 -72 rlineto
          16 43 49 9 37 hhcurveto
          61 43 -24 -61 -9 hvcurveto
          -10 -59 -50 -51 -83 -9 rrcurveto
          -47 hlineto
          -11 -68 rlineto
          endchar
        </CharString>
        <CharString name="threequarters">
          252 -35 -21 77 -21 111 55 113 61 137 55 108 60 18 -20 hstemhm
          141 71 -55 70 341 65 84 callsubr
          hintmask 1111110011000000
          153 477 80 callsubr
          -29 -29 -41 hhcurveto
          -27 -31 10 16 -26 hvcurveto
          -33 -52 rlineto
          -22 33 39 -13 36 hhcurveto
          83 60 55 78 13 hvcurveto
          7 43 -8 35 -47 21 rrcurveto
          hintmask 1111110101000000
          35 19 22 33 5 32 rrcurveto
          64 10 -36 41 -77 hhcurveto
          -31 -37 -5 callsubr
          597 -366 -26 callsubr
          30 358 rmoveto
          hintmask 1111101101000000
          -69 26 -437 26 callsubr
        </CharString>
        <CharString name="threesuperior">
          -204 281 61 137 55 108 60 hstemhm
          143 71 -55 70 hintmask 00000000
          hintmask 11101000
          155 479 80 callsubr
          -28 -29 -41 hhcurveto
          -27 -32 10 16 -25 hvcurveto
          -33 -52 rlineto
          -22 32 39 -13 36 hhcurveto
          83 61 55 78 12 hvcurveto
          7 43 -8 35 -46 21 rrcurveto
          hintmask 11110000
          35 19 21 33 5 32 rrcurveto
          64 10 -35 41 -77 hhcurveto
          -31 -38 -5 callsubr
          endchar
        </CharString>
        <CharString name="tilde">
          -2 587 30 callsubr
          hintmask 00000000
          hintmask 01000000
          231 593 46 callsubr
          hintmask 10000000
          -52 callsubr
          hintmask 00100000
          5 callsubr
          endchar
        </CharString>
        <CharString name="trademark">
          230 314 -21 323 48 hstem
          94 53 143 44 253 46 vstem
          191 616 rmoveto
          -51 -323 rlineto
          53 hlineto
          51 323 rlineto
          97 hlineto
          8 48 rlineto
          -246 hlineto
          -8 -48 rlineto
          427 -227 rmoveto
          145 275 rlineto
          62 hlineto
          -41 -371 rlineto
          -50 hlineto
          33 264 2 15 2 15 3 16 rlinecurve
          -144 -269 rlineto
          -41 hlineto
          -59 269 -3 -16 -2 -15 -2 -15 rlinecurve
          -51 -264 rlineto
          -49 hlineto
          77 371 rlineto
          62 hlineto
          endchar
        </CharString>
        <CharString name="two">
          -46 0 81 515 85 hstem
          280 88 vstem
          -18 hmoveto
          403 hlineto
          19 81 rlineto
          -295 hlineto
          103 96 66 72 53 55 59 62 45 60 12 75 rrcurveto
          107 17 -56 73 -121 hhcurveto
          -54 -55 -13 -25 -58 hvcurveto
          11 -72 rlineto
          16 42 49 9 38 hhcurveto
          71 37 -36 -70 -11 hvcurveto
          -10 -62 -31 -32 -73 -74 -66 -68 -86 -84 -97 -89 rrcurveto
          endchar
        </CharString>
        <CharString name="twosuperior">
          -183 286 62 290 62 hstem
          157 72 vstem
          33 286 rmoveto
          257 hlineto
          10 62 rlineto
          -159 hlineto
          44 66 callsubr
          11 -26 49 -87 hhcurveto
          -39 -32 88 callsubr
          30 31 3 20 hhcurveto
          28 25 56 callsubr
          -44 -40 rrcurveto
          endchar
        </CharString>
        <CharString name="u">
          -3 -13 77 -52 -21 515 49 callsubr
          hintmask 10111000
          9 callsubr
          hintmask 01111000
          -22 callsubr
          hintmask 10111000
          -67 callsubr
          endchar
        </CharString>
        <CharString name="uacute">
          -64 callsubr
          279 694 -77 callsubr
        </CharString>
        <CharString name="ucircumflex">
          11 callsubr
          241 49 callsubr
          hintmask 10111100
          161 -13 rmoveto
          -116 -18 72 100 16 hvcurveto
          55 347 97 callsubr
          -55 -345 rlineto
          -56 -9 0 -41 64 hhcurveto
          44 59 16 31 38 hvcurveto
          62 392 97 callsubr
          hintmask 01111100
          -81 -512 rlineto
          -73 hlineto
          -1 54 rlineto
          hintmask 10111100
          -28 -39 -65 -30 -61 hhcurveto
          156 680 -83 callsubr
        </CharString>
        <CharString name="udieresis">
          11 callsubr
          110 111 hstemhm
          18 90 -30 6 callsubr
          -41 67 callsubr
          hintmask 10111010
          9 callsubr
          hintmask 01111001
          -22 callsubr
          hintmask 10111010
          -67 callsubr
          83 720 rmoveto
          hintmask 10110110
          -105 callsubr
        </CharString>
        <CharString name="ugrave">
          -64 callsubr
          194 590 -40 callsubr
        </CharString>
        <CharString name="underscore">
          32 0 74 hstem
          455 74 rmoveto
          -426 hlineto
          -11 -74 rlineto
          426 hlineto
          endchar
        </CharString>
        <CharString name="uni0025">
          205 64 callsubr
          -12 47 callsubr
          181 -84 callsubr
        </CharString>
        <CharString name="uni007F">
          endchar
        </CharString>
        <CharString name="uni00A0">
          -305 endchar
        </CharString>
        <CharString name="uni00AD">
          -87 96 callsubr
          371 318 rmoveto
          -303 32 callsubr
          303 hlineto
          endchar
        </CharString>
        <CharString name="v">
          -59 21 -21 505 -20 21 -20 hstemhm
          hintmask 00000000
          hintmask 11000000
          380 505 rmoveto
          -184 -415 rlineto
          hintmask 10100000
          -49 416 rlineto
          -97 hlineto
          81 -506 rlineto
          101 hlineto
          hintmask 11000000
          241 505 rlineto
          endchar
        </CharString>
        <CharString name="w">
          168 21 -21 506 -20 hstem
          356 395 rmoveto
          36 -395 rlineto
          92 hlineto
          211 506 rlineto
          -90 hlineto
          -155 -405 -35 405 -83 -5 -163 -400 -25 405 rlineto
          -90 hlineto
          51 -506 rlineto
          92 hlineto
          endchar
        </CharString>
        <CharString name="x">
          -38 21 -21 506 -20 hstem
          483 506 rmoveto
          -100 hlineto
          -134 -173 -76 173 rlineto
          -105 hlineto
          123 -238 -222 -268 rlineto
          105 hlineto
          152 202 89 -202 rlineto
          103 hlineto
          -133 267 rlineto
          endchar
        </CharString>
        <CharString name="y">
          -45 -211 68 649 -20 hstem
          -75 callsubr
          endchar
        </CharString>
        <CharString name="yacute">
          -45 -211 68 649 -20 268 -20 hstem
          -75 callsubr
          517 821 -77 callsubr
        </CharString>
        <CharString name="ydieresis">
          -45 -211 68 649 -20 110 111 hstem
          52 6 callsubr
          vstem
          -75 callsubr
          281 847 rmoveto
          -105 callsubr
        </CharString>
        <CharString name="yen">
          49 21 -21 125 64 59 64 356 -20 hstem
          187 96 vstem
          45 125 rmoveto
          161 hlineto
          -19 -125 rlineto
          96 hlineto
          19 125 rlineto
          173 hlineto
          10 64 rlineto
          -173 hlineto
          10 59 rlineto
          173 hlineto
          10 64 rlineto
          -154 hlineto
          244 356 4 callsubr
          -108 hlineto
          134 -356 rlineto
          -141 hlineto
          -10 -64 rlineto
          161 hlineto
          -10 -59 rlineto
          -161 hlineto
          endchar
        </CharString>
        <CharString name="z">
          -81 0 74 358 74 hstem
          -2 callsubr
          endchar
        </CharString>
        <CharString name="zcaron">
          -81 0 74 358 74 0 66 153 -20 hstemhm
          37 callsubr
          -2 callsubr
          -82 558 23 callsubr
        </CharString>
        <CharString name="zero">
          10 15 callsubr
          hstem
          5 94 238 94 vstem
          212 -13 rmoveto
          130 99 79 270 43 hvcurveto
          268 42 -70 77 -129 hhcurveto
          -129 -98 -79 -270 -43 hvcurveto
          -270 -43 69 -75 129 hhcurveto
          100 609 rmoveto
          78 31 -60 -201 -31 hvcurveto
          -205 -33 -50 -58 -78 hhcurveto
          -78 -32 58 205 33 hvcurveto
          201 31 51 60 78 hhcurveto
          endchar
        </CharString>
</ttFont>
